<?xml version="1.0" encoding="UTF-8"?>
<svg version="1.1" xmlns="http://www.w3.org/2000/svg" width="512" height="512">
<path d="M0 0 C1.30916299 -0.00644889 2.61832598 -0.01289778 3.96716058 -0.0195421 C5.42873318 -0.01659952 6.8903054 -0.01346406 8.35187721 -0.01015663 C9.89770532 -0.01389089 11.44353153 -0.01849151 12.98935473 -0.02388728 C17.24853532 -0.03616044 21.50763762 -0.03585175 25.76683187 -0.03349853 C30.35588711 -0.03309145 34.94491688 -0.04411905 39.53396034 -0.05361366 C48.52895218 -0.07024818 57.52391781 -0.07572431 66.51892374 -0.07683842 C73.82811989 -0.07778772 81.13730737 -0.08189207 88.44650078 -0.08823967 C109.15502557 -0.10585862 129.8635296 -0.1150775 150.57206194 -0.11357872 C152.24773221 -0.11345885 152.24773221 -0.11345885 153.95725441 -0.11333656 C155.07572689 -0.1132548 156.19419938 -0.11317304 157.34656496 -0.1130888 C175.47840554 -0.11227567 193.61016309 -0.13141839 211.74197964 -0.1596133 C230.34549885 -0.18831416 248.94897752 -0.20215514 267.55251944 -0.20042574 C278.00267645 -0.19976088 288.45274642 -0.20529518 298.90288353 -0.22678185 C307.79963219 -0.24495687 316.69625436 -0.24937134 325.59301351 -0.235763 C330.13438992 -0.22921474 334.6755234 -0.22918279 339.21687698 -0.2464695 C343.37198455 -0.26212363 347.52665504 -0.25941569 351.68175144 -0.24190123 C353.18712626 -0.23881434 354.69253308 -0.24252687 356.19787018 -0.25362138 C358.24018172 -0.26767985 360.28262599 -0.25480045 362.32493591 -0.24050903 C364.02839017 -0.24116114 364.02839017 -0.24116114 365.76625764 -0.24182642 C369.48395379 0.37215544 371.14398703 1.61558106 373.7883091 4.25726891 C374.80126077 7.29612392 374.92210072 9.39159616 374.9133091 12.56976891 C374.91588722 13.49402672 374.91846535 14.41828453 374.9211216 15.37055016 C374.78176497 18.39950738 374.34267925 21.2786293 373.7883091 24.25726891 C375.04321144 24.18765953 375.04321144 24.18765953 376.32346535 24.11664391 C395.2826115 23.5287634 413.16957569 30.48278798 427.40159035 42.99164391 C442.50784139 57.33145668 450.54838031 74.97552819 451.95627785 95.73383141 C452.15388183 117.47026946 444.84252462 136.16713349 430.03440285 152.10101891 C415.52659586 166.02851361 396.70219206 173.85466881 376.58948994 173.53189182 C375.17452918 173.49579019 373.75970231 173.45403977 372.34506607 173.40690613 C370.07572017 173.33696173 367.80840057 173.30425214 365.53811073 173.28160667 C359.09844745 173.21598295 352.6614055 173.12615052 346.22458839 172.91815758 C327.64594084 171.41113383 327.64594084 171.41113383 311.00242043 177.35150719 C308.08096527 180.38736791 305.91284771 183.72852695 303.87867165 187.40457726 C302.30709002 190.07493323 300.27757721 192.11242323 298.07346535 194.27289391 C297.37503517 194.98066978 296.676605 195.68844566 295.95701027 196.4176693 C295.26196388 197.10723717 294.5669175 197.79680504 293.8508091 198.50726891 C292.71059303 199.64120079 292.71059303 199.64120079 291.5473423 200.79804039 C285.0247899 207.19206959 278.19719106 212.92630047 270.7883091 218.25726891 C270.23836281 218.65736168 269.68841652 219.05745445 269.12180519 219.46967125 C263.42837877 223.59077059 257.64678683 227.36678907 251.56809425 230.89887047 C250.48613777 231.52811424 249.40418129 232.15735802 248.28943825 232.80566978 C247.46406563 233.28469749 246.63869301 233.7637252 245.7883091 234.25726891 C247.02105678 234.26085144 247.02105678 234.26085144 248.27870846 234.26450634 C268.2582571 234.32359369 288.23768448 234.39910337 308.2171011 234.49298382 C317.87892823 234.53798565 327.54071815 234.57739011 337.20261574 234.60370445 C345.62207088 234.62664908 354.04140866 234.66000729 362.46077079 234.70597047 C366.92045546 234.72995055 371.38002355 234.74864788 375.83977127 234.75488281 C380.03490213 234.76091213 384.22973453 234.78083333 388.4247551 234.81154442 C389.96669127 234.82035935 391.50866639 234.82404012 393.05062675 234.82227707 C395.15187501 234.82063269 397.25220426 234.83724994 399.3533268 234.85854149 C400.53045644 234.86315045 401.70758608 234.86775942 402.92038631 234.87250805 C405.7883091 235.25726891 405.7883091 235.25726891 407.69366932 236.62154484 C408.7883091 238.25726891 408.7883091 238.25726891 408.73752785 240.82758141 C407.45085635 245.47654263 405.59192128 249.7459563 403.6008091 254.13226891 C403.22633644 254.99207359 402.85186378 255.85187828 402.46604347 256.73773766 C396.18745754 270.69250368 385.99590956 281.66586006 371.7179966 287.51508141 C363.96789519 290.18559827 356.94310331 290.73774778 348.7883091 290.25726891 C348.83471535 290.98172203 348.8811216 291.70617516 348.9289341 292.45258141 C349.16500402 298.77588277 349.07206597 302.46954064 344.7883091 307.25726891 C342.21853316 308.54215687 340.39060336 308.38742092 337.51176929 308.39428329 C336.38573392 308.39935784 335.25969855 308.40443238 334.09954089 308.4096607 C332.22823086 308.41040733 332.22823086 308.41040733 330.31911659 308.41116905 C329.00194816 308.41555131 327.68477973 308.41993356 326.3276971 308.42444861 C322.6591614 308.4364339 318.99063886 308.44206707 315.32208741 308.44662976 C311.3703793 308.45257838 307.41868699 308.46418999 303.46698952 308.47492027 C293.91785347 308.49946005 284.36871218 308.5140731 274.8195543 308.52698034 C272.12377901 308.53069092 269.42800424 308.53466425 266.73222947 308.53873301 C250.00189014 308.56396654 233.27155003 308.58602575 216.54119587 308.59846115 C212.66466392 308.60139098 208.788132 308.60435263 204.91160011 308.60736656 C203.9480741 308.60811261 202.98454808 308.60885866 201.99182431 308.60962732 C186.375379 308.62228708 170.7590474 308.65551764 155.14265528 308.69716839 C139.12012121 308.73955313 123.09764541 308.76315212 107.07505542 308.76838171 C98.07466332 308.77179962 89.07444896 308.78359935 80.07411194 308.81648445 C72.41066793 308.84443855 64.74743807 308.85550477 57.08394703 308.84428899 C53.17235286 308.83909048 49.26120746 308.84206557 45.34967804 308.86675453 C41.76990798 308.88916137 38.19091125 308.88857521 34.61112843 308.86955066 C32.70015111 308.86540448 30.78916975 308.88595962 28.87830752 308.90733755 C19.63050669 308.82111233 19.63050669 308.82111233 16.54767513 305.8442688 C13.97247503 302.05765347 13.67281359 300.18988292 13.7258091 295.63226891 C13.73483253 294.62937828 13.74385597 293.62648766 13.75315285 292.59320641 C13.76475441 291.82234703 13.77635597 291.05148766 13.7883091 290.25726891 C13.00069191 290.30367516 12.21307472 290.35008141 11.40159035 290.39789391 C-4.50036803 290.9248227 -16.72047071 285.41251054 -28.3991909 274.81976891 C-34.42808052 268.5324983 -37.73002944 261.12637396 -41.2116909 253.25726891 C-41.75309715 252.09582359 -42.2945034 250.93437828 -42.8523159 249.73773766 C-46.78785753 240.96926442 -46.78785753 240.96926442 -45.2116909 236.25726891 C-41.91857888 234.61071289 -38.25285678 235.07665221 -34.6311245 235.05194664 C-33.74325752 235.04204704 -32.85539055 235.03214745 -31.94061852 235.02194786 C-28.99714921 234.99028502 -26.05366375 234.96555654 -23.1101284 234.94086266 C-21.07274003 234.92029726 -19.03535596 234.8993009 -16.9979763 234.87788963 C-11.6287592 234.82262618 -6.25950333 234.77323576 -0.89021873 234.72504234 C4.58599242 234.6748585 10.06214709 234.61915618 15.5383091 234.56390953 C26.28826087 234.45627569 37.03826164 234.35484234 47.7883091 234.25726891 C45.8701841 233.97266808 45.8701841 233.97266808 43.9133091 233.68231773 C42.20493332 233.42242403 40.49660234 233.16223579 38.7883091 232.90180016 C37.94912941 232.77809044 37.10994972 232.65438072 36.24534035 232.52692223 C18.5511605 229.80507043 1.27066452 222.83599988 -9.66090965 208.05805016 C-24.8757274 186.23254935 -24.69938923 161.70511729 -24.2116909 136.25726891 C-18.76413424 134.43418221 -14.00072624 133.94081122 -8.2741909 134.00726891 C-7.45168846 134.01186119 -6.62918602 134.01645348 -5.78175926 134.02118492 C3.46106161 134.15539648 12.82058684 134.93104151 21.7883091 137.25726891 C21.24303566 136.15254234 20.69776222 135.04781578 20.13596535 133.90961266 C4.68605993 102.20720933 -5.92055224 69.11888062 -10.5241909 34.13226891 C-10.69587791 32.83998375 -10.86756493 31.54769859 -11.04445457 30.21625328 C-13.73825471 8.46350104 -13.73825471 8.46350104 -9.2116909 2.25726891 C-5.66897901 -0.10453902 -4.19937143 0.00521116 0 0 Z M369.7883091 53.25726891 C369.58077003 54.06164391 369.37323097 54.86601891 369.15940285 55.69476891 C360.9706853 86.94209276 350.25272577 115.35752837 335.7883091 144.25726891 C342.38607289 144.35963809 348.98362801 144.42913602 355.58201027 144.47699547 C357.82134593 144.49697084 360.06063039 144.52416072 362.29978371 144.55902672 C379.37872883 144.81808723 393.05872547 144.62973818 406.7883091 133.25726891 C407.42381691 132.75711266 408.05932472 132.25695641 408.71409035 131.74164391 C416.36888591 125.02036 421.32241332 113.95161247 422.6398716 103.96820641 C423.42396223 89.64823536 419.05034536 78.11499924 410.0461216 67.13226891 C402.63189411 59.01045954 391.85783599 53.60552146 380.82346535 53.06195641 C379.51248878 53.08515953 378.20151222 53.10836266 376.8508091 53.13226891 C376.16696144 53.14129234 375.48311378 53.15031578 374.77854347 53.15961266 C373.11497623 53.18287933 371.45159279 53.21873724 369.7883091 53.25726891 Z M74.7883091 204.25726891 C74.7883091 212.17726891 74.7883091 220.09726891 74.7883091 228.25726891 C78.00052247 228.60164364 78.00052247 228.60164364 80.2883091 225.88226891 C83.49288662 221.85476362 84.59064025 217.18426433 85.7883091 212.25726891 C84.14484212 210.92101989 82.49847224 209.58834039 80.8508091 208.25726891 C79.93428566 207.51476891 79.01776222 206.77226891 78.07346535 206.00726891 C76.13569847 204.15593489 76.13569847 204.15593489 74.7883091 204.25726891 Z M87.7883091 230.25726891 C86.4683091 231.90726891 85.1483091 233.55726891 83.7883091 235.25726891 C91.7083091 235.25726891 99.6283091 235.25726891 107.7883091 235.25726891 C107.7883091 234.92726891 107.7883091 234.59726891 107.7883091 234.25726891 C105.20636933 233.58476366 102.62298838 232.9190899 100.0383091 232.25726891 C99.30869972 232.06648766 98.57909035 231.87570641 97.8273716 231.67914391 C94.34259264 230.79210926 91.40707188 230.25726891 87.7883091 230.25726891 Z " fill="#F0F1F1" transform="translate(53.21169090270996,171.74273109436035)"/>
<path d="M0 0 C1.00411653 -0.00569124 2.00823306 -0.01138248 3.04277736 -0.01724619 C4.15413419 -0.01842606 5.26549101 -0.01960594 6.41052532 -0.02082157 C8.17189147 -0.0284533 8.17189147 -0.0284533 9.96884078 -0.03623921 C13.23832431 -0.0492635 16.50778326 -0.0577354 19.77728522 -0.0642122 C22.57906844 -0.0705767 25.38083328 -0.08064766 28.18260507 -0.09077286 C37.4140074 -0.12411858 46.64542091 -0.14562115 55.87686375 -0.16397271 C58.27972231 -0.16876634 60.68258041 -0.17374982 63.08543849 -0.17877793 C77.9992438 -0.20974527 92.91305295 -0.23643722 107.82688141 -0.25319672 C111.28230897 -0.25714637 114.73773646 -0.26114934 118.19316387 -0.2652216 C119.48144562 -0.26673414 119.48144562 -0.26673414 120.79575326 -0.26827724 C134.71476785 -0.28529129 148.63360486 -0.32640797 162.55253271 -0.37724458 C176.83484639 -0.42898043 191.11706866 -0.45813355 205.39947528 -0.4653936 C213.4218189 -0.47006073 221.44387164 -0.48486273 229.46612263 -0.5251379 C236.29699838 -0.55938981 243.12753082 -0.57339705 249.95848755 -0.56071376 C253.44488307 -0.55487544 256.93055205 -0.55883091 260.41683865 -0.5888834 C264.19472124 -0.61637636 267.97076548 -0.6071377 271.74866009 -0.58844852 C272.85332475 -0.60524345 273.95798941 -0.62203838 275.09612876 -0.63934225 C282.30780071 -0.54981107 282.30780071 -0.54981107 285.06597364 1.42686164 C289.08435498 6.02698983 288.91292467 9.84071741 288.69194317 15.6476202 C284.82550097 62.67485255 266.46596938 109.05240955 234.35600567 143.8663702 C232.41784266 145.9787501 230.55983545 148.13978842 228.70756817 150.3273077 C217.93697772 162.65044539 200.94860298 176.91362943 185.27006817 182.1398077 C183.11384873 182.20752622 180.9555056 182.21315542 178.79838848 182.18643856 C177.44627962 182.17366569 176.09416759 182.16122498 174.74205303 182.14906979 C174.02643452 182.14115351 173.310816 182.13323723 172.57351208 182.12508106 C167.97850121 182.08289642 163.38322938 182.09480916 158.7880621 182.0949688 C154.75342349 182.09197198 150.7203306 182.07128791 146.68608379 182.01309872 C142.77853903 181.95779213 138.87358508 181.95150004 134.96576977 181.97779179 C133.4810223 181.97902302 131.99614673 181.96262919 130.51180553 181.92787647 C122.04899381 181.55010126 122.04899381 181.55010126 114.84482098 185.34642696 C113.07410537 187.87261583 111.66431641 190.39350811 110.27006817 193.1398077 C102.08503976 202.3952864 91.74582196 207.61703623 79.40678692 208.37808895 C70.67853096 208.58967707 62.86771248 208.03519132 54.48564434 205.47501278 C50.68311981 204.33460478 48.04209829 203.7494561 44.27006817 205.1398077 C43.48116192 205.81398739 42.69225567 206.48816708 41.87944317 207.18277645 C38.55276922 209.67778191 36.62642201 209.5870184 32.52006817 209.4523077 C31.37022442 209.42781551 30.22038067 209.40332333 29.03569317 209.37808895 C26.27006817 209.1398077 26.27006817 209.1398077 25.27006817 208.1398077 C22.30940007 207.97566388 19.35807412 207.86011467 16.39506817 207.7648077 C-6.37356186 206.79114245 -30.12045316 203.12467855 -47.31196308 186.80777645 C-67.15458154 164.91357871 -67.26284459 136.94692229 -66.72993183 109.1398077 C-61.28363377 107.31714221 -56.51814397 106.81994615 -50.79243183 106.8898077 C-49.95832783 106.89875057 -49.12422382 106.90769344 -48.26484394 106.91690731 C-25.57071544 107.33361046 -3.96366252 112.87272941 12.94975567 128.7257452 C28.58770763 144.99553361 32.11092395 166.89249031 32.83256817 188.5773077 C32.87575176 189.78580379 32.91893536 190.99429989 32.96342754 192.23941708 C33.06896221 195.20611376 33.17107531 198.17288672 33.27006817 201.1398077 C36.5736809 198.0553401 38.87457853 195.51484987 40.58256817 191.3273077 C45.37780231 180.21859913 50.1565647 169.2674991 58.27006817 160.1398077 C57.58041973 159.45531551 56.89077129 158.77082333 56.18022442 158.06558895 C22.12101799 123.95852976 -1.40518627 81.13443543 -8.72993183 33.1398077 C-8.8427248 32.44870907 -8.95551777 31.75761044 -9.07172871 31.04556942 C-12.59716077 9.3140969 -12.59716077 9.3140969 -8.85493183 2.9523077 C-5.72028444 0.27863787 -4.03791676 0.01331158 0 0 Z " fill="#91B56B" transform="translate(95.72993183135986,198.86019229888916)"/>
<path d="M0 0 C1.29482951 -0.0039821 2.58965902 -0.00796419 3.92372578 -0.01206696 C5.3690925 -0.00636046 6.8144585 -0.00046926 8.2598238 0.00558662 C9.78858983 0.004715 11.31735556 0.00296482 12.8461197 0.00040829 C17.05796196 -0.00407775 21.26970309 0.00395563 25.48153245 0.01396441 C30.01935446 0.02257858 34.55717048 0.0196802 39.09499836 0.01815987 C46.96071639 0.01710972 54.82640131 0.02339981 62.69211102 0.03463554 C74.06468818 0.05087009 85.43724929 0.05609645 96.80983678 0.05861153 C115.25983442 0.06299185 133.70981439 0.07631008 152.15980244 0.09521675 C170.08525727 0.11356684 188.0107073 0.1277276 205.93616962 0.13623238 C207.04056982 0.13675782 208.14497001 0.13728327 209.28283688 0.13782464 C214.82313131 0.14043466 220.36342577 0.14296209 225.90372026 0.14544845 C271.88663554 0.16619144 317.86953155 0.20142613 363.85242939 0.24609566 C363.86098726 2.65809564 363.8672488 5.07006498 363.87218952 7.48207283 C363.87483861 8.16210696 363.87748771 8.84214108 363.88021708 9.54278231 C363.89125561 16.72726411 363.01853912 23.5897535 361.91492939 30.68359566 C361.80872272 31.38220711 361.70251606 32.08081856 361.59309101 32.80060005 C358.08698957 55.48386873 351.72105122 78.07293564 342.85242939 99.24609566 C342.49600361 100.09752144 342.13957783 100.94894722 341.77235126 101.82617378 C328.94531774 132.01636606 311.46879412 158.49995878 288.85242939 182.24609566 C287.99705585 183.14449165 287.99705585 183.14449165 287.12440205 184.06103706 C275.90707846 195.75517989 264.09280358 205.51355714 250.66492939 214.55859566 C249.95296406 215.03836861 249.24099873 215.51814156 248.50745869 216.01245308 C247.10624018 216.93725409 245.69192395 217.84256952 244.2641573 218.72583199 C242.70757705 219.70704235 241.17864491 220.73425088 239.68858051 221.8137989 C230.68782387 227.70253162 221.74913323 227.01563585 211.40321064 226.83203316 C209.53564546 226.82082257 207.66806246 226.8122912 205.80047321 226.80630684 C200.91911079 226.78355485 196.0388441 226.72475172 191.15791035 226.65808296 C186.16365596 226.59636389 181.16922202 226.56922895 176.17469501 226.53906441 C166.40012884 226.47499317 156.62637074 226.37278186 146.85242939 226.24609566 C147.69805439 225.29734566 148.54367939 224.34859566 149.41492939 223.37109566 C151.36782261 221.17597754 152.8841588 219.18693374 154.27731037 216.58929634 C155.90896023 213.63947812 157.33744007 211.50343682 159.85242939 209.24609566 C164.90375826 207.86454396 169.81145686 208.08341826 174.98914814 208.26172066 C176.47494157 208.27319219 177.9607846 208.27934447 179.44662189 208.28045845 C183.35105045 208.29360699 187.25236621 208.36109427 191.15583515 208.44561958 C197.38301029 208.57746142 203.6096216 208.65259101 209.83809566 208.6781559 C211.99517759 208.69868327 214.14856234 208.75837873 216.30474567 208.82184029 C229.12343284 209.03644764 238.08119474 204.16378955 247.97742939 196.43359566 C248.65410664 195.91587593 249.33078388 195.3981562 250.0279665 194.864748 C254.7925761 191.17920741 259.341862 187.30202966 263.75086689 183.19531441 C265.63170606 181.4508186 267.5586097 179.81141998 269.53992939 178.18359566 C282.37026758 167.24839739 292.6637239 151.66808816 300.8392458 137.05371284 C301.8297072 135.28663423 302.84574379 133.53623821 303.86414814 131.78515816 C316.22222455 110.06627741 323.53525295 85.72909867 327.85242939 61.24609566 C328.19467548 59.32023628 328.19467548 59.32023628 328.54383564 57.35547066 C331.1121506 43.72150311 331.1121506 43.72150311 328.53493118 30.59461594 C324.28139458 26.87066057 319.94527314 27.55595265 314.4714632 27.61117744 C313.29551025 27.60337749 312.1195573 27.59557754 310.90796942 27.58754122 C307.64269015 27.57102821 304.3783375 27.57699711 301.1130811 27.59247231 C297.59218151 27.60376872 294.07140877 27.58633162 290.55053425 27.57257271 C283.65246039 27.55031658 276.75465824 27.55515212 269.85657365 27.56963591 C264.25075807 27.5809198 258.64501873 27.58246276 253.03919506 27.57701683 C251.84321737 27.57586758 251.84321737 27.57586758 250.62307851 27.57469512 C249.00341728 27.57309652 247.38375607 27.57147545 245.76409488 27.56983216 C230.56910234 27.55556747 215.3742605 27.57197814 200.17929267 27.59883399 C187.13837795 27.62116917 174.09768578 27.61729707 161.05677509 27.59424019 C145.91837331 27.56748744 130.78010373 27.55694536 115.64168161 27.57230151 C114.02761426 27.57389427 112.41354688 27.57546613 110.79947948 27.57701683 C109.60820912 27.5781739 109.60820912 27.5781739 108.39287268 27.57935434 C102.79363101 27.58367325 97.19447311 27.57638061 91.59524441 27.56461906 C84.77171728 27.55060113 77.94847776 27.55437868 71.12498362 27.58102278 C67.64274218 27.5941715 64.16098039 27.59929624 60.67874241 27.58277702 C56.90547208 27.56916879 53.13356221 27.58618354 49.36037922 27.61117744 C48.2570788 27.60002384 47.15377837 27.58887023 46.0170446 27.57737863 C39.90115175 27.63757594 39.90115175 27.63757594 34.66740799 30.61880112 C32.5608351 33.66819656 32.2679037 35.10448173 32.43446064 38.77343941 C32.48038349 39.8277314 32.52630634 40.88202339 32.5736208 41.96826363 C33.02612706 47.28818404 33.69067767 52.53773537 34.53992939 57.80859566 C34.71999531 58.9411982 34.90006123 60.07380074 35.08558369 61.24072456 C36.71891431 71.11326976 38.90069086 80.68769583 41.85242939 90.24609566 C42.0876833 91.02017769 42.3229372 91.79425972 42.56532001 92.59179878 C51.72608003 122.15277372 66.85312646 149.29012921 87.82508564 172.03125191 C89.62506989 173.99770869 91.34028467 176.00577801 93.03992939 178.05859566 C95.6984459 181.20115579 98.61839855 183.70507143 101.85242939 186.24609566 C101.02742939 187.25672066 100.20242939 188.26734566 99.35242939 189.30859566 C96.30946175 193.34651931 93.90388596 197.60422912 91.53992939 202.05859566 C91.19059345 202.71674263 90.84125751 203.3748896 90.48133564 204.05298042 C89.06932796 206.75712801 87.81876227 209.34709703 86.85242939 212.24609566 C81.64145464 211.31139167 78.22521002 208.19599652 74.85242939 204.24609566 C73.59784704 201.33665945 73.30358166 198.36877706 72.85242939 195.24609566 C69.19925497 176.89993403 62.44267539 160.96717186 47.03992939 149.43359566 C40.74938307 145.26929319 33.69507153 142.22516795 26.38758564 140.36328316 C20.73526259 137.88724842 18.85997939 131.40101619 16.47742939 126.12109566 C15.91132037 124.89960958 15.34474448 123.67833978 14.77772236 122.4572773 C-0.03622539 90.17073225 -17.47953516 43.65252026 -12.14757061 7.24609566 C-9.21895382 1.31156721 -6.48244594 -0.00438447 0 0 Z " fill="#F0F2F1" transform="translate(53.14757061004639,171.75390434265137)"/>
<path d="M0 0 C2.1875 -0.375 2.1875 -0.375 5 0 C8.47426094 2.62499715 9.7151062 4.34221282 10.453125 8.63671875 C12.09979981 56.44909794 -12.05953004 109.1895431 -43.9140625 143.7265625 C-45.8522255 145.8389424 -47.71023271 147.99998072 -49.5625 150.1875 C-60.33309045 162.51063768 -77.32146519 176.77382173 -93 182 C-95.15621943 182.06771852 -97.31456257 182.07334772 -99.47167969 182.04663086 C-100.82378855 182.03385799 -102.17590058 182.02141728 -103.52801514 182.00926208 C-104.24363365 182.00134581 -104.95925217 181.99342953 -105.69655609 181.98527336 C-110.29156696 181.94308872 -114.88683878 181.95500146 -119.48200607 181.95516109 C-123.51664468 181.95216428 -127.54973757 181.93148021 -131.58398438 181.87329102 C-135.49152913 181.81798443 -139.39648309 181.81169233 -143.3042984 181.83798409 C-144.78904586 181.83921532 -146.27392143 181.82282149 -147.75826263 181.78806877 C-156.22107435 181.41029356 -156.22107435 181.41029356 -163.42524719 185.20661926 C-165.1959628 187.73280813 -166.60575176 190.2537004 -168 193 C-176.18502841 202.2554787 -186.52424621 207.47722853 -198.86328125 208.23828125 C-207.59153721 208.44986937 -215.40235569 207.89538362 -223.78442383 205.33520508 C-227.58694836 204.19479708 -230.22796988 203.6096484 -234 205 C-234.78890625 205.67417969 -235.5778125 206.34835937 -236.390625 207.04296875 C-239.71729895 209.53797421 -241.64364616 209.4472107 -245.75 209.3125 C-246.89984375 209.28800781 -248.0496875 209.26351562 -249.234375 209.23828125 C-252 209 -252 209 -253 208 C-255.9606681 207.83585618 -258.91199404 207.72030697 -261.875 207.625 C-284.64363003 206.65133475 -308.39052133 202.98487085 -325.58203125 186.66796875 C-345.4246497 164.773771 -345.53291276 136.80711459 -345 109 C-339.55370193 107.17733451 -334.78821214 106.68013845 -329.0625 106.75 C-328.228396 106.75894287 -327.39429199 106.76788574 -326.53491211 106.77709961 C-303.84078361 107.19380276 -282.23373069 112.73292171 -265.3203125 128.5859375 C-249.68236054 144.85572591 -246.15914422 166.75268261 -245.4375 188.4375 C-245.39431641 189.64599609 -245.35113281 190.85449219 -245.30664062 192.09960938 C-245.20110596 195.06630606 -245.09899286 198.03307902 -245 201 C-244.278125 200.26136719 -243.55625 199.52273438 -242.8125 198.76171875 C-238.47631227 194.5038233 -233.74363663 190.79129281 -229 187 C-227.49373047 185.76830078 -227.49373047 185.76830078 -225.95703125 184.51171875 C-215.38554175 175.99049773 -204.01488418 169.28181617 -191.3125 164.4375 C-190.65338623 164.18581055 -189.99427246 163.93412109 -189.31518555 163.67480469 C-185.79613745 162.41069386 -182.74212108 161.5212782 -179 162 C-177 164 -177 164 -176.875 166.4375 C-178 169 -178 169 -181.4921875 170.4140625 C-182.2135791 170.66567139 -182.9349707 170.91728027 -183.67822266 171.17651367 C-187.61619283 172.57323012 -191.42361746 174.26345764 -195.25 175.9375 C-196.03890625 176.27201172 -196.8278125 176.60652344 -197.640625 176.95117188 C-201.82489646 178.78532465 -205.01146247 180.40893474 -208 184 C-207.33613281 184.04898438 -206.67226562 184.09796875 -205.98828125 184.1484375 C-196.12552512 184.98353218 -196.12552512 184.98353218 -193 187 C-192.0625 189.5 -192.0625 189.5 -192 192 C-194 194 -194 194 -196.03125 194.046875 C-196.8459375 193.94890625 -197.660625 193.8509375 -198.5 193.75 C-199.39203125 193.64300781 -200.2840625 193.53601563 -201.203125 193.42578125 C-204.69662796 192.89394909 -208.13472832 192.19386279 -211.578125 191.40234375 C-217.36109237 190.42697733 -217.36109237 190.42697733 -222.5546875 192.75 C-223.32039063 193.4925 -224.08609375 194.235 -224.875 195 C-225.65617187 195.7425 -226.43734375 196.485 -227.2421875 197.25 C-227.82226562 197.8275 -228.40234375 198.405 -229 199 C-225.34211534 201.23224756 -221.55118478 201.65248172 -217.375 202.125 C-216.65787842 202.2070166 -215.94075684 202.2890332 -215.2019043 202.37353516 C-201.41797911 203.87384746 -189.62249246 202.65775228 -178.203125 193.890625 C-166.11531656 183.51739932 -160.40464026 168.92918933 -156 154 C-154.35 154.33 -152.7 154.66 -151 155 C-151.26266695 156.33496612 -151.53572653 157.66788705 -151.8125 159 C-152.03873047 160.11375 -152.03873047 160.11375 -152.26953125 161.25 C-152.90499648 163.64233968 -153.66802708 165.86178691 -154.5456543 168.171875 C-154.81750046 168.88956055 -155.08934662 169.60724609 -155.36943054 170.34667969 C-155.57751846 170.89227539 -155.78560638 171.43787109 -156 172 C-148.72224603 171.93286364 -141.4450235 171.84300297 -134.16772461 171.73754883 C-131.69350508 171.70435196 -129.21921078 171.67630382 -126.74487305 171.65356445 C-123.18245666 171.61992299 -119.62072228 171.56760013 -116.05859375 171.51171875 C-114.40663246 171.50213387 -114.40663246 171.50213387 -112.72129822 171.49235535 C-106.68953996 171.37761455 -102.33526992 170.86146181 -97 168 C-95.98957642 167.47128296 -95.98957642 167.47128296 -94.95874023 166.93188477 C-84.77898016 160.82161896 -75.67787323 154.10317964 -67 146 C-66.08154297 145.14728516 -66.08154297 145.14728516 -65.14453125 144.27734375 C-45.7026904 126.03809099 -31.09405811 104.17324323 -20 80 C-19.7014209 79.35305176 -19.4028418 78.70610352 -19.09521484 78.03955078 C-7.82171681 53.21328073 -3.19125678 26.88803586 0 0 Z " fill="#75A24E" transform="translate(374,199)"/>
<path d="M0 0 C6.765625 0.828125 6.765625 0.828125 8.875 2.375 C11.10447329 5.5953503 11.13547154 8.527039 11.125 12.3125 C11.12757813 13.23675781 11.13015625 14.16101563 11.1328125 15.11328125 C10.99345588 18.14223847 10.55437015 21.02136039 10 24 C11.25490234 23.93039063 11.25490234 23.93039063 12.53515625 23.859375 C31.4943024 23.2714945 49.3812666 30.22551907 63.61328125 42.734375 C78.7195323 57.07418778 86.76007121 74.71825928 88.16796875 95.4765625 C88.36557273 117.21300055 81.05421552 135.90986459 66.24609375 151.84375 C51.73828676 165.77124471 32.91388297 173.5973999 12.80118084 173.27462292 C11.38622009 173.23852129 9.97139321 173.19677086 8.55675697 173.14963722 C6.28741107 173.07969283 4.02009147 173.04698323 1.74980164 173.02433777 C-4.68986165 172.95871405 -11.1269036 172.86888161 -17.5637207 172.66088867 C-36.14236825 171.15386493 -36.14236825 171.15386493 -52.78588867 177.09423828 C-55.70734383 180.13009901 -57.87546139 183.47125804 -59.90963745 187.14730835 C-61.48121907 189.81766433 -63.51073189 191.85515432 -65.71484375 194.015625 C-66.41327393 194.72340088 -67.1117041 195.43117676 -67.83129883 196.16040039 C-68.52634521 196.84996826 -69.2213916 197.53953613 -69.9375 198.25 C-70.69764404 199.00595459 -71.45778809 199.76190918 -72.2409668 200.54077148 C-78.76462905 206.93588867 -85.5944944 212.66273844 -93 218 C-93.80896729 218.59216309 -93.80896729 218.59216309 -94.63427734 219.19628906 C-117.86001412 236.1295445 -117.86001412 236.1295445 -126.83413696 236.12025452 C-127.85499893 236.12162918 -128.8758609 236.12300385 -129.92765808 236.12442017 C-131.05190689 236.12082489 -132.1761557 236.11722961 -133.33447266 236.11352539 C-134.51494675 236.11367142 -135.69542084 236.11381744 -136.91166687 236.1139679 C-140.15319775 236.11338959 -143.39468575 236.10836583 -146.63620806 236.10139394 C-150.02214911 236.09515306 -153.40809095 236.09455602 -156.79403687 236.09336853 C-163.2078101 236.09025739 -169.62156634 236.08204691 -176.03533208 236.07201904 C-183.33632547 236.06085119 -190.63731965 236.05534576 -197.93831944 236.05032361 C-212.95888911 236.03986412 -227.97944286 236.02226886 -243 236 C-243 235.67 -243 235.34 -243 235 C-241.40671875 234.65388672 -241.40671875 234.65388672 -239.78125 234.30078125 C-238.35398663 233.97213508 -236.92691316 233.64266342 -235.5 233.3125 C-234.80390625 233.16361328 -234.1078125 233.01472656 -233.390625 232.86132812 C-229.46768893 231.93507933 -226.54951242 230.81222213 -223.26672363 228.44708252 C-218.9003698 225.65878634 -215.54272014 225.32890717 -210.45117188 225.48339844 C-209.63689728 225.48737137 -208.82262268 225.4913443 -207.9836731 225.49543762 C-206.22779861 225.5065921 -204.47196581 225.52886703 -202.71635437 225.56124115 C-199.92165631 225.61020001 -197.12872193 225.62395146 -194.33361816 225.62823486 C-186.39204623 225.64605574 -178.45154552 225.72140273 -170.51074219 225.83154297 C-165.63823559 225.89667674 -160.76709263 225.91688724 -155.8941803 225.91138458 C-154.0539769 225.91827799 -152.21374552 225.9419569 -150.37400818 225.98394012 C-136.81087942 226.29023501 -128.18904035 223.67600731 -117 216 C-116.10473099 215.42399551 -115.20946198 214.84799103 -114.2870636 214.25453186 C-112.26890306 212.95528567 -110.31867059 211.59527177 -108.375 210.1875 C-107.67173584 209.68234863 -106.96847168 209.17719727 -106.24389648 208.65673828 C-88.68767523 195.86875103 -72.00388429 180.4312317 -59 163 C-58.28432861 162.05833984 -58.28432861 162.05833984 -57.55419922 161.09765625 C-45.45279404 145.12603209 -35.55775872 128.09991508 -27 110 C-26.42894531 108.81148438 -25.85789062 107.62296875 -25.26953125 106.3984375 C-9.92814232 73.52904066 -1.23184051 36.21611103 0 0 Z M6 53 C5.79246094 53.804375 5.58492187 54.60875 5.37109375 55.4375 C-2.8176238 86.68482386 -13.53558332 115.10025946 -28 144 C-21.4022362 144.10236919 -14.80468109 144.17186711 -8.20629883 144.21972656 C-5.96696316 144.23970193 -3.72767871 144.26689182 -1.48852539 144.30175781 C15.59041973 144.56081832 29.27041637 144.37246927 43 133 C43.63550781 132.49984375 44.27101563 131.9996875 44.92578125 131.484375 C52.58057681 124.76309109 57.53410422 113.69434357 58.8515625 103.7109375 C59.63565313 89.39096646 55.26203626 77.85773033 46.2578125 66.875 C38.84358501 58.75319064 28.06952689 53.34825256 17.03515625 52.8046875 C15.72417969 52.82789063 14.41320312 52.85109375 13.0625 52.875 C12.37865234 52.88402344 11.69480469 52.89304688 10.99023438 52.90234375 C9.32666713 52.92561042 7.66328369 52.96146833 6 53 Z " fill="#D2D4D5" transform="translate(417,172)"/>
<path d="M0 0 C110.55 0 221.1 0 335 0 C335 12.52941176 335 12.52941176 331 17 C328.43022406 18.28488797 326.60229426 18.13015201 323.7234602 18.13701439 C322.59742482 18.14208893 321.47138945 18.14716347 320.31123179 18.15239179 C318.43992177 18.15313843 318.43992177 18.15313843 316.5308075 18.15390015 C314.55505485 18.16047353 314.55505485 18.16047353 312.539388 18.1671797 C308.8708523 18.17916499 305.20232976 18.18479816 301.53377831 18.18936086 C297.5820702 18.19530948 293.63037789 18.20692108 289.67868042 18.21765137 C280.12954437 18.24219114 270.58040309 18.25680419 261.0312452 18.26971143 C258.33546991 18.27342201 255.63969514 18.27739535 252.94392037 18.2814641 C236.21358105 18.30669763 219.48324093 18.32875684 202.75288677 18.34119225 C198.87635482 18.34412207 194.9998229 18.34708372 191.12329102 18.35009766 C190.159765 18.35084371 189.19623898 18.35158976 188.20351521 18.35235842 C172.5870699 18.36501817 156.9707383 18.39824874 141.35434618 18.43989949 C125.33181211 18.48228422 109.30933632 18.50588321 93.28674632 18.51111281 C84.28635423 18.51453071 75.28613986 18.52633045 66.28580284 18.55921555 C58.62235883 18.58716965 50.95912897 18.59823586 43.29563793 18.58702008 C39.38404376 18.58182158 35.47289837 18.58479667 31.56136894 18.60948563 C27.98159888 18.63189246 24.40260216 18.6313063 20.82281933 18.61228175 C18.91184202 18.60813557 17.00086066 18.62869071 15.08999842 18.65006864 C5.84219759 18.56384342 5.84219759 18.56384342 2.75936604 15.58699989 C-1.36210295 9.52672613 0 9.94050038 0 0 Z " fill="#D1D3D4" transform="translate(67,462)"/>
<path d="M0 0 C3.3 0 6.6 0 10 0 C10.25702865 10.33365737 9.65447875 20.20449304 8.0625 30.4375 C7.95629333 31.13611145 7.85008667 31.8347229 7.74066162 32.55450439 C4.23456018 55.23777307 -2.13137817 77.82683998 -11 99 C-11.35642578 99.85142578 -11.71285156 100.70285156 -12.08007812 101.58007812 C-24.90711165 131.77027041 -42.38363527 158.25386312 -65 182 C-65.85537354 182.898396 -65.85537354 182.898396 -66.72802734 183.81494141 C-77.94535093 195.50908424 -89.75962581 205.26746148 -103.1875 214.3125 C-104.255448 215.03215942 -104.255448 215.03215942 -105.3449707 215.76635742 C-106.74618921 216.69115843 -108.16050544 217.59647386 -109.58827209 218.47973633 C-111.14485234 219.46094669 -112.67378448 220.48815522 -114.16384888 221.56770325 C-123.16460552 227.45643597 -132.10329616 226.76954019 -142.44921875 226.5859375 C-144.31678393 226.57472692 -146.18436693 226.56619555 -148.05195618 226.56021118 C-152.9333186 226.53745919 -157.81358529 226.47865606 -162.69451904 226.4119873 C-167.68877343 226.35026823 -172.68320737 226.3231333 -177.67773438 226.29296875 C-187.45230055 226.22889751 -197.22605865 226.12668621 -207 226 C-206.154375 225.05125 -205.30875 224.1025 -204.4375 223.125 C-202.48460678 220.92988188 -200.96827058 218.94083808 -199.57511902 216.34320068 C-197.94346916 213.39338246 -196.51498932 211.25734116 -194 209 C-188.94867113 207.61844831 -184.04097253 207.83732261 -178.86328125 208.015625 C-177.37748782 208.02709653 -175.89164479 208.03324882 -174.4058075 208.03436279 C-170.50137894 208.04751134 -166.60006318 208.11499861 -162.69659424 208.19952393 C-156.4694191 208.33136576 -150.24280779 208.40649536 -144.01433372 208.43206024 C-141.8572518 208.45258761 -139.70386705 208.51228307 -137.54768372 208.57574463 C-124.52034343 208.79412214 -115.57345292 203.75875145 -105.5625 195.875 C-104.89541016 195.36324219 -104.22832031 194.85148438 -103.54101562 194.32421875 C-100.76011737 192.18421989 -98.02333734 190.01967053 -95.33984375 187.7578125 C-93 186 -93 186 -90.6472168 185.15869141 C-87.51785383 183.78896378 -85.72233283 182.11033016 -83.3046875 179.703125 C-82.4293335 178.83397461 -81.55397949 177.96482422 -80.65209961 177.06933594 C-79.73565674 176.13895508 -78.81921387 175.20857422 -77.875 174.25 C-77.40401886 173.77469849 -76.93303772 173.29939697 -76.44778442 172.80969238 C-69.54212367 165.82951486 -62.99642669 158.74390682 -57.265625 150.76171875 C-55.87464712 148.82551189 -54.45291095 146.91377435 -53.03125 145 C-45.7874486 135.12354707 -39.66634947 124.84868807 -34 114 C-33.64454102 113.32614258 -33.28908203 112.65228516 -32.92285156 111.95800781 C-14.38457521 76.63954517 -5.54992239 39.30650918 0 0 Z " fill="#E6E7E7" transform="translate(407,172)"/>
<path d="M0 0 C1.60332791 -0.08121924 3.20784026 -0.13929134 4.8125 -0.1875 C6.15248047 -0.23970703 6.15248047 -0.23970703 7.51953125 -0.29296875 C10 0 10 0 11.88671875 1.13671875 C13 3 13 3 12.94921875 5.5703125 C11.66254725 10.21927372 9.80361219 14.48868739 7.8125 18.875 C7.43802734 19.73480469 7.06355469 20.59460938 6.67773438 21.48046875 C0.49294124 35.22677119 -9.64850854 46.48284641 -23.82884932 52.12569761 C-32.38259089 54.96659388 -40.22363578 55.56911808 -49.18078613 55.50793457 C-50.67179995 55.51255393 -52.16280919 55.51891374 -53.65380907 55.52684355 C-57.715434 55.54341818 -61.77667913 55.53534517 -65.83830476 55.52289867 C-70.23239247 55.51380144 -74.62641753 55.52784095 -79.02049255 55.53881836 C-87.61444447 55.55655854 -96.20825625 55.55278372 -104.80221355 55.5411678 C-111.78978996 55.53211598 -118.77732724 55.53091702 -125.76490784 55.53526306 C-126.76129848 55.53587599 -127.75768912 55.53648893 -128.78427342 55.53712043 C-130.80873598 55.5383994 -132.83319853 55.53969625 -134.85766107 55.5410108 C-153.81893143 55.55240341 -172.7801243 55.5393236 -191.74138194 55.51780933 C-207.99347961 55.49993956 -224.24546298 55.50304404 -240.49755859 55.52148438 C-259.39328056 55.5429144 -278.28893469 55.5513049 -297.18466711 55.53903532 C-299.20147545 55.53776119 -301.2182838 55.53650371 -303.23509216 55.53526306 C-304.72336173 55.53433741 -304.72336173 55.53433741 -306.24169734 55.53339306 C-313.21685803 55.52994655 -320.19197552 55.53575339 -327.16712952 55.54518127 C-335.67329056 55.55642635 -344.17930404 55.5533086 -352.68544829 55.5320583 C-357.02130221 55.52158157 -361.35691055 55.51736807 -365.69276237 55.53065491 C-369.66903707 55.54265512 -373.64484068 55.5358921 -377.62107319 55.5147447 C-379.0522611 55.51031069 -380.48348958 55.51247203 -381.91465098 55.52224785 C-397.23555089 55.61879623 -410.84140519 51.92974103 -422.1875 41.1875 C-424 39 -424 39 -424 37 C-419.20269082 38.55588406 -414.49333907 40.30354188 -409.78125 42.09765625 C-404.80242554 43.71297711 -399.99825791 44.12531472 -394.78509426 44.13142776 C-393.55152642 44.13526891 -392.31795857 44.13911005 -391.04700989 44.1430676 C-389.68624201 44.14228746 -388.32547418 44.14140869 -386.96470642 44.14044189 C-385.51273777 44.14302714 -384.06076982 44.14604075 -382.60880286 44.1494453 C-378.62269779 44.15749993 -374.63661075 44.15930401 -370.65049851 44.16004276 C-366.34969675 44.16189602 -362.04890428 44.16944477 -357.74810791 44.17617798 C-348.34499894 44.18975137 -338.94189425 44.1957846 -329.53877711 44.20018864 C-323.6647468 44.202953 -317.79071812 44.20719073 -311.91668892 44.21169281 C-295.64589892 44.22388467 -279.37511023 44.23418383 -263.10431576 44.2375679 C-262.06323002 44.23778747 -261.02214428 44.23800703 -259.94951049 44.23823325 C-258.38418989 44.23856067 -258.38418989 44.23856067 -256.78724664 44.2388947 C-254.67269893 44.23933816 -252.55815122 44.23978473 -250.44360352 44.24023438 C-249.39471955 44.2404558 -248.34583558 44.24067723 -247.26516724 44.24090537 C-230.27704641 44.24485171 -213.28896852 44.26230111 -196.30086427 44.2855939 C-178.84982834 44.30932779 -161.39881393 44.3217707 -143.9477616 44.32293582 C-134.15357058 44.32385149 -124.35943551 44.32957639 -114.56525993 44.34775543 C-106.22365354 44.363184 -97.88212037 44.36826068 -89.54050242 44.36001733 C-85.28776044 44.35612045 -81.03516579 44.35699318 -76.78244209 44.37107468 C-72.88184078 44.3838716 -68.98149663 44.38256574 -65.08089537 44.37048396 C-63.67708173 44.36853693 -62.27324949 44.37155898 -60.86946189 44.38032833 C-43.03977886 44.4845701 -28.11072469 40.48957361 -15 28 C-7.81000971 20.04229001 -4.09467682 9.76341122 0 0 Z " fill="#E5E6E7" transform="translate(449,407)"/>
<path d="M0 0 C0.495 1.485 0.495 1.485 1 3 C2.25490234 2.93039063 2.25490234 2.93039063 3.53515625 2.859375 C22.02546363 2.28603214 39.00562814 9.03096546 53.49609375 20.359375 C55.25303287 22.27603586 55.39336734 23.50644925 56 26 C57.26311561 28.5403917 58.55459442 31.05252126 59.875 33.5625 C63.12286509 39.88868888 65.63434731 45.979868 67 53 C67.18175781 53.89074219 67.36351562 54.78148437 67.55078125 55.69921875 C69.08744199 66.99033464 69.16120193 79.30454123 65 90 C64.47212891 91.4540625 64.47212891 91.4540625 63.93359375 92.9375 C56.36393853 112.5236706 42.96950762 126.58122313 24.15625 135.6484375 C12.45327194 140.65986127 1.73556121 142.15778523 -10.83984375 142.09765625 C-11.96193741 142.0962413 -13.08403107 142.09482635 -14.24012756 142.09336853 C-17.80594608 142.087794 -21.37170062 142.07524616 -24.9375 142.0625 C-27.3626293 142.05748171 -29.78775959 142.05291938 -32.21289062 142.04882812 C-38.14194872 142.03783291 -44.07096979 142.0211202 -50 142 C-48.93916481 140.16570284 -47.87623455 138.3326173 -46.8125 136.5 C-46.22082031 135.4790625 -45.62914062 134.458125 -45.01953125 133.40625 C-44.35308594 132.2821875 -43.68664062 131.158125 -43 130 C-42.67789551 129.28426819 -42.35579102 128.56853638 -42.02392578 127.83111572 C-40.87216019 125.50998312 -39.86071497 123.81020471 -38 122 C-34.39774912 120.93734579 -30.97361035 121.15994384 -27.25 121.359375 C-26.20030029 121.38018127 -25.15060059 121.40098755 -24.0690918 121.42242432 C-20.71046369 121.49360491 -17.35674458 121.61798507 -14 121.75 C13.31049495 122.73570631 13.31049495 122.73570631 36.21875 108.93359375 C44.67715348 100.11223639 48.90306755 89.22069964 49.03125 77.02734375 C48.34096165 63.65300696 42.80322695 51.88836131 33.1171875 42.6328125 C24.6020315 36.06577337 14.68335318 32.93893911 4.0625 32.375 C3.37865234 32.33632812 2.69480469 32.29765625 1.99023438 32.2578125 C0.32720487 32.16477588 -1.33635847 32.08136213 -3 32 C-2.17480852 21.31594193 -1.0849793 10.66018492 0 0 Z " fill="#E5E6E7" transform="translate(426,193)"/>
<path d="M0 0 C2.1875 -0.375 2.1875 -0.375 5 0 C8.47426094 2.62499715 9.7151062 4.34221282 10.453125 8.63671875 C12.09979981 56.44909794 -12.05953004 109.1895431 -43.9140625 143.7265625 C-45.8522255 145.8389424 -47.71023271 147.99998072 -49.5625 150.1875 C-60.33309045 162.51063768 -77.32146519 176.77382173 -93 182 C-95.19275019 182.08961953 -97.38818658 182.11758191 -99.58276367 182.11352539 C-100.24644455 182.11367142 -100.91012543 182.11381744 -101.59391785 182.1139679 C-103.78530152 182.11327182 -105.97659995 182.1054937 -108.16796875 182.09765625 C-109.68825738 182.09579099 -111.20854661 182.09436759 -112.72883606 182.09336853 C-116.72864443 182.08955188 -120.72841644 182.07972885 -124.72821045 182.06866455 C-128.81033842 182.05843213 -132.89247227 182.05386698 -136.97460938 182.04882812 C-144.98308959 182.03810583 -152.99154027 182.02103961 -161 182 C-159.68 178.7 -158.36 175.4 -157 172 C-155.43113037 171.98541748 -153.86226074 171.97083496 -152.24584961 171.95581055 C-146.41049713 171.89772327 -140.5755263 171.82049005 -134.74047852 171.73754883 C-132.21775519 171.70434871 -129.69495846 171.67630158 -127.17211914 171.65356445 C-123.54020994 171.61992904 -119.90897043 171.56760633 -116.27734375 171.51171875 C-115.15416245 171.50532883 -114.03098114 171.4989389 -112.87376404 171.49235535 C-106.79171506 171.37884194 -102.37569275 170.89644345 -97 168 C-95.98957642 167.47128296 -95.98957642 167.47128296 -94.95874023 166.93188477 C-84.77898016 160.82161896 -75.67787323 154.10317964 -67 146 C-66.08154297 145.14728516 -66.08154297 145.14728516 -65.14453125 144.27734375 C-45.7026904 126.03809099 -31.09405811 104.17324323 -20 80 C-19.7014209 79.35305176 -19.4028418 78.70610352 -19.09521484 78.03955078 C-7.82171681 53.21328073 -3.19125678 26.88803586 0 0 Z " fill="#77A350" transform="translate(374,199)"/>
<path d="M0 0 C13.59811171 1.19912802 30.31388887 21.53544797 38.58935547 31.26904297 C46.28122095 40.70748642 52.82134479 50.96187519 58.79125977 61.55541992 C60.60883527 64.76424511 62.31224155 67.47828253 65 70 C65.61875 69.175 66.2375 68.35 66.875 67.5 C70.6651076 62.96880991 75.34373699 59.59106312 80 56 C80.98226562 55.20207031 81.96453125 54.40414062 82.9765625 53.58203125 C93.5763543 45.03149918 104.94538441 38.29696856 117.6875 33.4375 C118.34661377 33.18581055 119.00572754 32.93412109 119.68481445 32.67480469 C123.20386255 31.41069386 126.25787892 30.5212782 130 31 C132 33 132 33 132.125 35.4375 C131 38 131 38 127.5078125 39.4140625 C126.7864209 39.66567139 126.0650293 39.91728027 125.32177734 40.17651367 C121.38380717 41.57323012 117.57638254 43.26345764 113.75 44.9375 C112.96109375 45.27201172 112.1721875 45.60652344 111.359375 45.95117188 C107.17510354 47.78532465 103.98853753 49.40893474 101 53 C101.66386719 53.04898438 102.32773438 53.09796875 103.01171875 53.1484375 C112.87447488 53.98353218 112.87447488 53.98353218 116 56 C116.9375 58.5 116.9375 58.5 117 61 C115 63 115 63 112.96875 63.046875 C112.1540625 62.94890625 111.339375 62.8509375 110.5 62.75 C109.60796875 62.64300781 108.7159375 62.53601563 107.796875 62.42578125 C104.30337204 61.89394909 100.86527168 61.19386279 97.421875 60.40234375 C91.63890763 59.42697733 91.63890763 59.42697733 86.4453125 61.75 C85.29675781 62.86375 85.29675781 62.86375 84.125 64 C83.34382813 64.7425 82.56265625 65.485 81.7578125 66.25 C81.17773438 66.8275 80.59765625 67.405 80 68 C83.65788466 70.23224756 87.44881522 70.65248172 91.625 71.125 C92.70068237 71.2480249 92.70068237 71.2480249 93.7980957 71.37353516 C107.58202089 72.87384746 119.37750754 71.65775228 130.796875 62.890625 C142.88468344 52.51739932 148.59535974 37.92918933 153 23 C154.65 23.33 156.3 23.66 158 24 C154.67736949 41.82138185 146.69152015 59.43616232 131.75 70.375 C119.67972248 77.68780153 105.11775615 79.18896364 91.46875 76.05859375 C89.36529394 75.53196565 87.28778426 74.96806282 85.21362305 74.3359375 C81.41227441 73.19318547 78.77118797 72.60995882 75 74 C74.21109375 74.67417969 73.4221875 75.34835937 72.609375 76.04296875 C69.28270105 78.53797421 67.35635384 78.4472107 63.25 78.3125 C61.52523437 78.27576172 61.52523437 78.27576172 59.765625 78.23828125 C57 78 57 78 56 77 C53.0393319 76.83585618 50.08800596 76.72030697 47.125 76.625 C23.89400002 75.63156221 0.35105524 71.80417384 -17 55 C-13.27134135 55 -12.2593871 56.04901129 -9.25 58.1875 C9.39851317 70.30169163 32.52896665 70.53149403 54 71 C53.70230713 70.50072998 53.40461426 70.00145996 53.09790039 69.48706055 C51.74978482 67.2223001 50.40610108 64.95494139 49.0625 62.6875 C48.59392578 61.90181641 48.12535156 61.11613281 47.64257812 60.30664062 C47.19462891 59.54931641 46.74667969 58.79199219 46.28515625 58.01171875 C45.87144775 57.31522217 45.45773926 56.61872559 45.03149414 55.90112305 C44 54 44 54 43 51 C41.07800781 50.81824219 41.07800781 50.81824219 39.1171875 50.6328125 C9.8168961 47.8168961 9.8168961 47.8168961 7 45 C7.55555556 40.44444444 7.55555556 40.44444444 9 39 C11.68092621 39.06582631 14.32641926 39.19312567 17 39.375 C18.15616821 39.44835571 18.15616821 39.44835571 19.33569336 39.52319336 C24.57824767 39.86849807 29.78718408 40.3365507 35 41 C34.02160156 39.93072266 34.02160156 39.93072266 33.0234375 38.83984375 C32.14945313 37.88207031 31.27546875 36.92429687 30.375 35.9375 C29.91279053 35.43234863 29.45058105 34.92719727 28.97436523 34.40673828 C26.58791286 31.78804304 24.27770099 29.13910035 22.0625 26.375 C17.99947083 21.57948106 12.91408859 17.87571455 8 14 C6.10361148 12.479859 4.207742 10.95907018 2.3125 9.4375 C0.87550532 8.29103301 -0.56179506 7.1449484 -2 6 C-1.125 1.125 -1.125 1.125 0 0 Z " fill="#5B7B3A" transform="translate(65,330)"/>
<path d="M0 0 C1.46421387 0.01196411 1.46421387 0.01196411 2.95800781 0.02416992 C9.78632318 0.15943495 15.76218228 0.99366355 22.1875 3.375 C24.0805552 3.94677994 25.97637328 4.50950193 27.875 5.0625 C29.31293262 5.49857599 30.75060534 5.93551595 32.1875 6.375 C26.70872919 24.6790752 19.54746821 43.48750963 1.7890625 53.19140625 C-8.93362508 58.0697461 -18.70700374 57.82845612 -30.125 56.5 C-30.80715576 56.42177002 -31.48931152 56.34354004 -32.19213867 56.26293945 C-36.00989071 55.77191781 -39.31336794 54.98581901 -42.8125 53.375 C-41.90127273 52.26634015 -40.98323341 51.16327781 -40.0625 50.0625 C-39.55203125 49.44761719 -39.0415625 48.83273437 -38.515625 48.19921875 C-34.08167925 43.45001539 -34.08167925 43.45001539 -30.3671875 43.23046875 C-29.48289063 43.34003906 -28.59859375 43.44960938 -27.6875 43.5625 C-26.72328125 43.67851562 -25.7590625 43.79453125 -24.765625 43.9140625 C-21.17938226 44.47381996 -17.6393496 45.16215987 -14.1015625 45.97265625 C-11.63100557 46.4069009 -9.31591578 46.44134494 -6.8125 46.375 C-6.2590236 44.29946352 -5.8125 42.53134036 -5.8125 40.375 C-10.7625 39.385 -15.7125 38.395 -20.8125 37.375 C-19.57384828 33.65904484 -18.02154962 33.1698189 -14.64257812 31.46875 C-13.93552734 31.1284375 -13.22847656 30.788125 -12.5 30.4375 C-11.42588867 29.90962891 -11.42588867 29.90962891 -10.33007812 29.37109375 C-4.32819912 26.4850611 1.78462263 24.21825258 8.1875 22.375 C8.56968767 20.71885343 8.90145102 19.05042976 9.1875 17.375 C8.8575 17.045 8.5275 16.715 8.1875 16.375 C2.33700531 16.7860117 -2.49775767 18.09286447 -7.875 20.375 C-8.6067041 20.68260254 -9.3384082 20.99020508 -10.09228516 21.30712891 C-21.24347218 26.14532461 -31.11244828 32.39872084 -40.359375 40.2890625 C-43.72439579 43.15040183 -47.25536867 45.7604054 -50.8125 48.375 C-49.56501537 41.45146031 -47.41904797 35.97116614 -44.0625 29.8125 C-43.64484375 29.01392578 -43.2271875 28.21535156 -42.796875 27.39257812 C-39.91585856 22.00384769 -36.6143888 17.15534026 -32.8125 12.375 C-34.1325 10.725 -35.4525 9.075 -36.8125 7.375 C-36.235 7.705 -35.6575 8.035 -35.0625 8.375 C-32.61366138 9.64575898 -32.61366138 9.64575898 -28.8125 9.375 C-26.44493184 8.17747855 -26.44493184 8.17747855 -24.0625 6.5625 C-16.11488916 1.3709155 -9.44092244 -0.13855113 0 0 Z " fill="#76A24F" transform="translate(186.8125,345.625)"/>
<path d="M0 0 C2.5 0.25 2.5 0.25 4.5 2.25 C5.26847023 5.98256967 4.17711101 8.01216264 2.1875 11.0625 C1.73246094 11.74699219 1.27742188 12.43148437 0.80859375 13.13671875 C-4.84425212 22.26564298 -5.64263392 32.75143519 -3.375 43.0625 C-1.44565063 50.26359273 1.93047405 56.43695039 6.08203125 62.59765625 C13.35126741 73.62113083 16.16990544 87.09366455 13.8046875 100.0625 C11.88952332 109.0899165 9.19761098 117.55238902 2.5 124.25 C0 124.5 0 124.5 -2.5 124.25 C-3.16 123.59 -3.82 122.93 -4.5 122.25 C-4.18457065 117.69880515 -2.73312822 114.40194812 -0.5625 110.4375 C5.01453821 99.6177784 5.68060213 90.06175703 2.546875 78.33984375 C0.32470485 71.78112514 -3.29823708 66.04083339 -7.125 60.3125 C-14.28956448 49.10342332 -16.14732653 35.16951401 -13.37133789 22.34179688 C-8.26625581 0.82662558 -8.26625581 0.82662558 0 0 Z " fill="#91B56A" transform="translate(294.5,27.75)"/>
<path d="M0 0 C2.5 0.25 2.5 0.25 4.5 2.25 C5.26847023 5.98256967 4.17711101 8.01216264 2.1875 11.0625 C1.73246094 11.74699219 1.27742187 12.43148437 0.80859375 13.13671875 C-4.84425212 22.26564298 -5.64263392 32.75143519 -3.375 43.0625 C-1.44565063 50.26359273 1.93047405 56.43695039 6.08203125 62.59765625 C13.35126741 73.62113083 16.16990544 87.09366455 13.8046875 100.0625 C11.88952332 109.0899165 9.19761098 117.55238902 2.5 124.25 C0 124.5 0 124.5 -2.5 124.25 C-3.16 123.59 -3.82 122.93 -4.5 122.25 C-4.18457065 117.69880515 -2.73312822 114.40194812 -0.5625 110.4375 C5.01453821 99.6177784 5.68060213 90.06175703 2.546875 78.33984375 C0.32470485 71.78112514 -3.29823708 66.04083339 -7.125 60.3125 C-14.28956448 49.10342332 -16.14732653 35.16951401 -13.37133789 22.34179688 C-8.26625581 0.82662558 -8.26625581 0.82662558 0 0 Z " fill="#91B56A" transform="translate(234.5,27.75)"/>
<path d="M0 0 C2.5 0.25 2.5 0.25 4.5 2.25 C5.26847023 5.98256967 4.17711101 8.01216264 2.1875 11.0625 C1.73246094 11.74699219 1.27742187 12.43148437 0.80859375 13.13671875 C-4.84425212 22.26564298 -5.64263392 32.75143519 -3.375 43.0625 C-1.44565063 50.26359273 1.93047405 56.43695039 6.08203125 62.59765625 C13.35126741 73.62113083 16.16990544 87.09366455 13.8046875 100.0625 C11.88952332 109.0899165 9.19761098 117.55238902 2.5 124.25 C0 124.5 0 124.5 -2.5 124.25 C-3.16 123.59 -3.82 122.93 -4.5 122.25 C-4.18457065 117.69880515 -2.73312822 114.40194812 -0.5625 110.4375 C5.01453821 99.6177784 5.68060213 90.06175703 2.546875 78.33984375 C0.32470485 71.78112514 -3.29823708 66.04083339 -7.125 60.3125 C-14.28956448 49.10342332 -16.14732653 35.16951401 -13.37133789 22.34179688 C-8.26625581 0.82662558 -8.26625581 0.82662558 0 0 Z " fill="#91B56A" transform="translate(174.5,27.75)"/>
<path d="M0 0 C1.65 0.33 3.3 0.66 5 1 C1.67736949 18.82138185 -6.30847985 36.43616232 -21.25 47.375 C-34.20150051 55.22169222 -49.33490363 56.0103998 -63.81323242 52.609375 C-67.92578755 51.55063193 -71.97024468 50.34325177 -76 49 C-75.34 47.68 -74.68 46.36 -74 45 C-73.33355469 45.30679688 -72.66710937 45.61359375 -71.98046875 45.9296875 C-68.46061928 47.19369635 -65.00596643 47.70196748 -61.3125 48.125 C-60.24358521 48.2480249 -60.24358521 48.2480249 -59.15307617 48.37353516 C-45.38896757 49.8812037 -33.60327257 48.64299636 -22.203125 39.890625 C-10.11531656 29.51739932 -4.40464026 14.92918933 0 0 Z " fill="#668B42" transform="translate(218,353)"/>
<path d="M0 0 C2.24665462 1.0631023 4.32299806 2.20715708 6.41796875 3.55078125 C26.23851453 16.15877299 49.22821466 16.37276238 72 17 C72.495 19.475 72.495 19.475 73 22 C47.66310357 22.72086007 21.00172123 20.24605154 1.36328125 2.41796875 C0 1 0 1 0 0 Z " fill="#668D42" transform="translate(48,384)"/>
<path d="M0 0 C3 1 3 1 4.28125 3.51953125 C9.56514065 17.79619734 12.17496907 30.71956935 12.0625 45.9375 C12.05798828 47.09830078 12.05347656 48.25910156 12.04882812 49.45507812 C12.03710647 52.30343934 12.0206976 55.15169222 12 58 C7.72580261 52.32986248 6.79635312 49.04031632 7.0625 41.875 C7.28473688 29.22171043 5.67648083 16.81000469 0.76953125 5.06640625 C0 3 0 3 0 0 Z " fill="#698D45" transform="translate(116,341)"/>
<path d="M0 0 C3.23693164 1.48483103 5.9325625 3.32707435 8.75 5.5 C9.54921875 6.1084375 10.3484375 6.716875 11.171875 7.34375 C11.77515625 7.8903125 12.3784375 8.436875 13 9 C13 9.66 13 10.32 13 11 C9.42594199 10.40566226 7.49886665 9.01400148 4.8125 6.625 C4.11769531 6.01914062 3.42289063 5.41328125 2.70703125 4.7890625 C1 3 1 3 0 0 Z " fill="#D8DADA" transform="translate(127,373)"/>
<path d="M0 0 C3.62276315 1.3255581 6.63505348 2.94346955 9.8125 5.125 C10.60269531 5.66382813 11.39289063 6.20265625 12.20703125 6.7578125 C12.79871094 7.16773438 13.39039063 7.57765625 14 8 C13.67 8.99 13.34 9.98 13 11 C11.58235006 10.06398754 10.16592432 9.1261208 8.75 8.1875 C7.56664062 7.40439453 7.56664062 7.40439453 6.359375 6.60546875 C1.77510663 3.4860411 1.77510663 3.4860411 0 2 C0 1.34 0 0.68 0 0 Z " fill="#E5E6E7" transform="translate(127,371)"/>
<path d="M0 0 C0 0.99 0 1.98 0 3 C-1.53125 4.38671875 -1.53125 4.38671875 -3.5 5.6875 C-4.47453125 6.34298828 -4.47453125 6.34298828 -5.46875 7.01171875 C-5.9740625 7.33785156 -6.479375 7.66398437 -7 8 C-7.66 7.67 -8.32 7.34 -9 7 C-6.24479785 4.04070881 -3.53372712 1.96318174 0 0 Z " fill="#EBEDEB" transform="translate(299,370)"/>
</svg>
