<?xml version="1.0" encoding="UTF-8"?>
<svg version="1.1" xmlns="http://www.w3.org/2000/svg" width="512" height="512">
<path d="M0 0 C1.09307447 -0.00843994 2.18614894 -0.01687988 3.31234688 -0.02557558 C4.50766582 -0.01956553 5.70298476 -0.01355549 6.93452549 -0.00736332 C8.20863256 -0.01274886 9.48273962 -0.01813439 10.79545599 -0.02368313 C14.32993991 -0.03815363 17.86419097 -0.03388811 21.39868772 -0.02651632 C25.21131518 -0.02179089 29.0238918 -0.03428894 32.83650303 -0.04453373 C40.30488203 -0.06173931 47.77317696 -0.06255811 55.24157064 -0.05732083 C61.31120322 -0.0532812 67.38081093 -0.05472021 73.45044231 -0.06006908 C74.74569669 -0.06119172 74.74569669 -0.06119172 76.06711783 -0.06233703 C77.82125978 -0.06386849 79.57540172 -0.06540684 81.32954366 -0.066952 C97.78352618 -0.08068337 114.23746117 -0.07523485 130.69144262 -0.06376678 C145.74765874 -0.05383346 160.80375199 -0.06677565 175.85994916 -0.09070098 C191.31645885 -0.11507755 206.77291127 -0.12470342 222.2294398 -0.11804825 C230.90840259 -0.11455285 239.58727086 -0.11680921 248.26621914 -0.13429928 C255.65434542 -0.14900324 263.04231062 -0.14968042 270.43043368 -0.13222837 C274.20033371 -0.12370105 277.96994577 -0.12161071 281.73983097 -0.13687992 C285.82555305 -0.15322359 289.91057696 -0.13861432 293.99629307 -0.12088871 C295.7859254 -0.13529622 295.7859254 -0.13529622 297.61171192 -0.14999479 C303.86271685 -0.09400303 307.83472919 0.06966251 312.5289011 4.38031673 C315.57181873 8.92968866 315.88672606 12.56156973 315.82186985 17.96625423 C315.81762501 18.66803799 315.81338017 19.36982174 315.80900669 20.09287167 C315.79233709 22.31409233 315.75470982 24.53437462 315.7164011 26.75531673 C315.70133898 28.26962646 315.68765326 29.78395054 315.67538548 31.29828548 C315.64247293 34.99259605 315.59077369 38.68636466 315.5289011 42.38031673 C316.20382603 42.3736549 316.87875095 42.36699306 317.57412815 42.36012936 C324.64787082 42.29336018 331.72152282 42.24834466 338.79550266 42.21552181 C341.42965429 42.20050734 344.06378122 42.1800896 346.69784641 42.15399837 C350.50096861 42.11729148 354.30375804 42.10051624 358.1070261 42.08734798 C359.27002232 42.07186413 360.43301853 42.05638027 361.63125706 42.04042721 C376.49421889 42.03742089 389.6731971 46.14036731 400.6851511 56.40766048 C409.57324395 65.9171666 414.65636554 76.8990237 414.70590305 89.89594173 C414.71575985 91.02370274 414.71575985 91.02370274 414.72581577 92.17424679 C414.74550353 94.65960458 414.7572052 97.14490188 414.76718235 99.63031673 C414.77125788 100.48324306 414.7753334 101.3361694 414.77953243 102.21494198 C414.80038027 106.73507092 414.81468397 111.25516968 414.82406712 115.77533627 C414.83509063 120.41745123 414.86944688 125.05908145 414.90923882 129.70102596 C414.93554299 133.29241406 414.94377142 136.88368944 414.94734859 140.47516537 C414.95218399 142.1845897 414.9637097 143.89401005 414.98238659 145.6033392 C415.14437704 161.42002342 412.38543301 174.35938023 401.5679636 186.59906673 C389.32652844 198.43093714 374.85000274 201.71971854 358.39999485 201.57562923 C356.55462887 201.57138439 356.55462887 201.57138439 354.67198277 201.56705379 C350.7700203 201.55592221 346.86829336 201.53083031 342.9664011 201.50531673 C340.30950342 201.49414207 337.65260795 201.48615363 334.99569798 201.47797298 C328.50668629 201.45600586 322.01781053 201.4225985 315.5289011 201.38031673 C315.47629124 202.31335629 315.42368137 203.24639584 315.36947727 204.20770931 C315.29189182 205.44674007 315.21430637 206.68577084 315.13436985 207.96234798 C315.02451756 209.79503231 315.02451756 209.79503231 314.91244602 211.66474056 C313.15310434 228.70829311 303.8627223 242.71068453 290.9820261 253.51703548 C284.23823274 258.46749526 276.69307283 262.43153347 268.5289011 264.38031673 C269.61200203 264.38113389 269.61200203 264.38113389 270.7169838 264.38196754 C288.28552874 264.39693406 305.85379195 264.43937546 323.42219162 264.5124073 C331.9181585 264.5470623 340.41396304 264.57241348 348.91000462 264.57587337 C356.31507397 264.57891258 363.71985426 264.59939689 371.12481195 264.64084131 C375.04586734 264.66217732 378.96651172 264.67476904 382.88762569 264.66647053 C386.57899876 264.65893385 390.26953878 264.67473593 393.96075916 264.70837688 C395.96005974 264.72054091 397.95946284 264.70801526 399.95875645 264.6947546 C409.73015317 264.81994011 409.73015317 264.81994011 412.82084751 267.79872799 C415.00466253 271.09939274 415.55007931 272.75408018 415.3414011 276.65375423 C413.61735496 282.43925524 409.51334347 287.15780229 405.78476048 291.81195736 C404.75229185 293.10133886 403.75296382 294.41718867 402.7632761 295.73969173 C392.29411867 308.95832486 375.74470657 315.8487943 359.5289011 318.38031673 C354.10757235 318.74440392 348.71518954 318.73391572 343.2867136 318.67328548 C341.7821505 318.66767182 340.27758181 318.66341013 338.77301121 318.66042233 C334.86363972 318.64911254 330.95461684 318.6197699 327.04538059 318.58631039 C323.03602911 318.5553055 319.02661984 318.54185284 315.01718235 318.52680111 C307.18759846 318.49488269 299.35829911 318.44386065 291.5289011 318.38031673 C291.5404221 319.46981625 291.55194309 320.55931576 291.56381321 321.68183041 C291.46952044 331.67092937 287.71704272 339.36485972 280.7476511 346.35687923 C269.56098945 356.55879954 256.15824195 355.81798819 241.89584446 355.76850033 C239.9203217 355.77257108 237.94480122 355.77791578 235.96928501 355.7844305 C230.63053492 355.79804901 225.29195973 355.79282831 219.95320678 355.78329325 C214.35250283 355.77566933 208.75181331 355.78274973 203.15110874 355.78745174 C193.74893616 355.7929009 184.3468344 355.78573927 174.94467258 355.77143002 C164.08996086 355.75510041 153.23541818 355.76039771 142.38071054 355.77690923 C133.04281546 355.79054237 123.70497113 355.79243496 114.3670693 355.78459322 C108.79787143 355.77992738 103.22875291 355.77926197 97.6595602 355.78920269 C92.4235741 355.79789685 87.18780507 355.79180572 81.95184231 355.77451992 C80.0354813 355.77056836 78.11910188 355.77166621 76.2027483 355.77830791 C62.5151927 355.82135685 50.17055123 355.45646011 39.61874485 345.59516048 C33.57487978 339.14067188 30.54532768 332.92916782 29.9273386 324.08344173 C29.84918919 323.01255306 29.77103977 321.94166439 29.69052219 320.83832455 C29.63718723 320.02718197 29.58385227 319.21603939 29.5289011 318.38031673 C28.71252171 318.38919918 27.89614231 318.39808163 27.05502415 318.40723324 C19.28991709 318.48801301 11.52501915 318.54859859 3.75959873 318.58756542 C-0.23089708 318.60827342 -4.2210403 318.63627551 -8.21133327 318.68207455 C-12.07581862 318.72614245 -15.93996896 318.74957931 -19.80468655 318.75982571 C-21.26520963 318.76710962 -22.72571835 318.78132603 -24.18609524 318.80323696 C-43.44481198 319.08019464 -62.01859516 314.46502576 -76.23281765 300.69281673 C-77.34076687 299.54812923 -77.34076687 299.54812923 -78.4710989 298.38031673 C-79.53264187 297.29750423 -79.53264187 297.29750423 -80.61563015 296.19281673 C-86.38612264 290.01408673 -92.6510872 283.00220084 -94.1585989 274.50531673 C-93.3498458 270.82916629 -92.11738892 269.02660675 -89.4710989 266.38031673 C-87.15097159 265.22025308 -85.79032927 265.24347821 -83.20641994 265.22209835 C-82.31177029 265.21230953 -81.41712063 265.20252071 -80.49536037 265.19243526 C-79.51137264 265.1866798 -78.52738491 265.18092434 -77.51357937 265.17499447 C-76.47940884 265.16509487 -75.4452383 265.15519527 -74.37972927 265.14499569 C-70.94927188 265.11331835 -67.51880063 265.08859862 -64.0882864 265.06391048 C-61.71459492 265.04334634 -59.34090715 265.02235002 -56.96722317 265.00093746 C-50.71024478 264.94566106 -44.45323303 264.89627636 -38.19619656 264.84809017 C-31.81514412 264.79791576 -25.43414029 264.74220853 -19.05313015 264.68695736 C-6.52582818 264.5793077 6.00151526 264.47769012 18.5289011 264.38031673 C17.95456491 264.26773651 17.38022871 264.15515629 16.78848839 264.03916454 C14.1602499 263.52265349 11.53268667 263.00278232 8.9051218 262.4828558 C7.54991806 262.21730389 7.54991806 262.21730389 6.16733646 261.94638729 C-0.11694828 260.69954735 -6.22547582 259.23636763 -12.2835989 257.13031673 C-13.14904324 256.83439632 -14.01448757 256.53847591 -14.90615749 256.23358822 C-36.52421226 248.5722776 -54.67714504 234.66474838 -68.4710989 216.38031673 C-69.18781765 215.44059017 -69.9045364 214.50086361 -70.6429739 213.53266048 C-86.4183263 191.85553617 -97.86566091 165.96077971 -97.7835989 138.88031673 C-97.79971218 137.81684017 -97.81582546 136.75336361 -97.83242702 135.65766048 C-97.83843826 125.85935096 -96.4948272 117.3507159 -89.56875515 110.07172298 C-79.83762996 102.2252105 -66.29853979 102.56947341 -54.4710989 103.38031673 C-51.12720705 103.76236327 -47.83841558 104.30877789 -44.5335989 104.94281673 C-43.44776516 105.14040585 -43.44776516 105.14040585 -42.33999538 105.34198666 C-36.22234409 106.63417034 -30.46447296 108.79626201 -24.62124538 110.97772884 C-23.7402895 111.30456409 -22.85933361 111.63139935 -21.95168209 111.96813869 C-19.79072905 112.770182 -17.63057018 113.57429423 -15.4710989 114.38031673 C-15.46563046 112.42713024 -15.46563046 112.42713024 -15.46005154 110.43448544 C-15.42310969 98.16293945 -15.36534554 85.89164459 -15.28719616 73.6202898 C-15.24768786 67.31144705 -15.21551564 61.00274458 -15.20010281 54.6937933 C-15.18495861 48.60524012 -15.15055207 42.51707254 -15.10278988 36.42869091 C-15.08795313 34.10591769 -15.08005658 31.78308943 -15.07921505 29.46026897 C-15.07685065 26.20647481 -15.04981171 22.95375078 -15.01699734 19.70014095 C-15.02454288 18.25975712 -15.02454288 18.25975712 -15.03224087 16.79027462 C-14.94476647 11.18365044 -14.36660825 7.72742716 -10.4710989 3.38031673 C-6.86167299 0.81477819 -4.40970912 0.00481436 0 0 Z M315.5289011 70.38031673 C315.5289011 104.70031673 315.5289011 139.02031673 315.5289011 174.38031673 C348.18771612 178.37723125 348.18771612 178.37723125 381.1617136 166.77484798 C386.20846354 161.25267957 387.76953007 156.21718662 387.81942844 148.69159603 C387.83218815 147.37970806 387.84494785 146.06782009 387.85809422 144.71617794 C387.86115244 143.29563197 387.86337989 141.875084 387.8648386 140.45453548 C387.87127412 138.98251373 387.87800303 137.51049323 387.88501072 136.03847408 C387.89695832 132.95781142 387.9006942 129.87726068 387.89950657 126.7965765 C387.89930363 122.86934251 387.92659005 118.94283419 387.96105099 115.01577187 C387.98340521 111.9760735 387.98734151 108.93654736 387.98628712 105.89677525 C387.98863088 104.45003226 387.99738463 103.00328363 388.01295185 101.55662251 C388.10323984 92.29898524 387.73868321 84.39355626 381.56405735 77.04047298 C380.91308079 76.51324642 380.26210423 75.98601986 379.5914011 75.44281673 C378.94300266 74.8975433 378.29460423 74.35226986 377.62655735 73.79047298 C373.47185636 70.9974617 369.88762964 70.13039155 364.91244602 70.15326595 C363.79639988 70.15350765 362.68035374 70.15374935 361.53048801 70.15399837 C360.36851902 70.16423031 359.20655003 70.17446224 358.00936985 70.18500423 C356.39512119 70.18802547 356.39512119 70.18802547 354.74826145 70.19110775 C350.73759783 70.20155255 346.72699507 70.22947513 342.7164011 70.25531673 C333.7445261 70.29656673 324.7726511 70.33781673 315.5289011 70.38031673 Z " fill="#D5DAF3" transform="translate(97.47109889984131,143.61968326568604)"/>
<path d="M0 0 C0.9120559 -0.00583219 1.82411179 -0.01166439 2.76380575 -0.01767331 C3.76719413 -0.01389399 4.77058251 -0.01011467 5.8043766 -0.00622082 C6.86921921 -0.01004636 7.93406183 -0.01387191 9.03117239 -0.01781338 C12.61713249 -0.02817334 16.20293336 -0.02414552 19.78890419 -0.02018261 C22.3526315 -0.02452744 24.9163575 -0.02970982 27.48008156 -0.03567028 C33.73185063 -0.04770059 39.98356051 -0.05020861 46.23533891 -0.04787002 C51.3162749 -0.04608864 56.39719783 -0.04783263 61.47813225 -0.05209446 C62.20065145 -0.05268965 62.92317065 -0.05328484 63.66758437 -0.05389806 C65.13528811 -0.05510979 66.60299185 -0.05632392 68.07069559 -0.05754044 C81.84306111 -0.0684234 95.61540216 -0.06625003 109.38776906 -0.06015559 C121.9907247 -0.05498687 134.59360303 -0.06623934 147.19654338 -0.08525381 C160.13192178 -0.10462046 173.06726358 -0.11289021 186.00265658 -0.10913056 C193.26699658 -0.10721659 200.53127079 -0.10972504 207.79559898 -0.1238451 C214.62620342 -0.13698748 221.45665044 -0.13451479 228.28725433 -0.12143421 C230.79752148 -0.11906065 233.30779941 -0.12183082 235.8180542 -0.13005733 C239.23856304 -0.14046048 242.65854533 -0.13247551 246.07903481 -0.11974621 C247.07796174 -0.12712049 248.07688868 -0.13449478 249.10608613 -0.14209253 C257.7886727 -0.07387778 257.7886727 -0.07387778 261.56868935 3.25447559 C264.24270318 6.76615041 264.94497055 9.30512423 264.9563694 13.67906666 C264.97122635 15.29367031 264.97122635 15.29367031 264.98638344 16.94089222 C264.98188179 18.11187962 264.97738014 19.28286701 264.97274208 20.48933887 C264.98303696 22.35124615 264.98303696 22.35124615 264.99353981 24.25076771 C265.00869614 27.65004737 265.01030318 31.04877817 265.00459743 34.44805098 C265.00150155 37.29298463 265.00760313 40.13786897 265.01363617 42.9827956 C265.02768039 49.70262924 265.02612379 56.42233579 265.01473427 63.14217091 C265.00328011 70.05237619 265.01728302 76.96219212 265.04413074 83.87234604 C265.06636857 89.82079253 265.07290623 95.76911755 265.06705433 101.71760261 C265.06369948 105.26316222 265.06599949 108.80847293 265.08330536 112.35399723 C265.10180486 116.31723162 265.08750459 120.27999744 265.07039833 124.24324512 C265.0800663 125.40208714 265.08973427 126.56092915 265.09969521 127.75488758 C264.99606173 139.27645735 261.80004845 148.9763474 253.56868935 157.25447559 C244.33353309 164.80132984 236.45884902 167.42224341 224.55809975 167.37473011 C223.37434684 167.37601175 223.37434684 167.37601175 222.16667974 167.37731928 C219.53194213 167.37896162 216.89726871 167.37347315 214.262537 167.36800098 C212.37005045 167.36771882 210.47756378 167.36787742 208.58507729 167.36844349 C203.45335524 167.36873031 198.32165659 167.36285211 193.18993998 167.35586953 C187.82476641 167.34961691 182.45959231 167.34903068 177.09441566 167.34784412 C166.93731089 167.34473645 156.78021688 167.33653063 146.62311685 167.32649463 C135.05850754 167.31531602 123.49389771 167.30981864 111.92928433 167.3047992 C88.14241317 167.29434756 64.35555231 167.27655749 40.56868935 167.25447559 C40.56868935 175.83447559 40.56868935 184.41447559 40.56868935 193.25447559 C-2.49557554 193.85136222 -2.49557554 193.85136222 -17.43131065 190.25447559 C-18.28386436 190.05048145 -19.13641808 189.84648731 -20.01480675 189.63631153 C-49.41354605 182.35682553 -74.07173047 168.79079186 -92.43131065 144.25447559 C-93.14545128 143.31732716 -93.8595919 142.38017872 -94.59537315 141.41463184 C-110.38067754 119.74469985 -121.82586703 93.83307895 -121.74381065 66.75447559 C-121.75992393 65.69099903 -121.77603722 64.62752247 -121.79263878 63.53181934 C-121.79865001 53.73350982 -120.45503895 45.22487476 -113.5289669 37.94588184 C-103.79784172 30.09936936 -90.25875155 30.44363227 -78.43131065 31.25447559 C-53.6123422 34.0900939 -31.50323036 44.75130832 -11.43131065 59.25447559 C-11.4401931 58.62886738 -11.44907555 58.00325916 -11.45822716 57.35869312 C-11.5468376 50.8373934 -11.60710195 44.31626518 -11.65103722 37.79451466 C-11.67113136 35.36182678 -11.69841154 32.92918708 -11.73306847 30.49666309 C-11.78168126 26.99654204 -11.80430204 23.49706057 -11.82193565 19.99666309 C-11.8425808 18.91206806 -11.86322594 17.82747303 -11.88449669 16.71001148 C-11.88631346 10.57276693 -11.61597899 6.88028165 -7.43131065 2.25447559 C-4.28821929 0.15908135 -3.57833491 0.00393104 0 0 Z " fill="#BBEB6C" transform="translate(121.43131065368652,215.7455244064331)"/>
<path d="M0 0 C1.25989714 -0.00397774 1.25989714 -0.00397774 2.54524675 -0.00803584 C5.3904899 -0.0157618 8.23569014 -0.01628926 11.08094311 -0.01688576 C13.12913239 -0.0208982 15.17732087 -0.02533605 17.22550839 -0.03016531 C22.87791823 -0.04216081 28.53031953 -0.04778613 34.18273962 -0.05234647 C40.26943391 -0.05829122 46.35611792 -0.06990377 52.44280529 -0.08063698 C66.45779883 -0.1040248 80.47279398 -0.11857134 94.48780049 -0.13086639 C99.33527229 -0.13511957 104.1827437 -0.13968526 109.03021502 -0.14444971 C134.79130641 -0.16970691 160.55239841 -0.1917603 186.31349945 -0.20417786 C192.28352199 -0.2070993 198.25354451 -0.2100668 204.22356701 -0.21308327 C204.96528426 -0.21345418 205.70700151 -0.21382509 206.47119504 -0.21420723 C230.52831514 -0.22636719 254.58536216 -0.25731817 278.64244792 -0.29900479 C303.36379504 -0.3417645 328.08510356 -0.36841526 352.80648867 -0.37365257 C356.29601621 -0.37439305 359.78554368 -0.37530374 363.27507114 -0.37631035 C363.96186682 -0.37650096 364.64866249 -0.37669158 365.35627015 -0.37688797 C376.42208834 -0.38040551 387.48781517 -0.40072155 398.55359977 -0.42710699 C409.67039781 -0.45321497 420.78711314 -0.46057929 431.90394346 -0.4500057 C437.92985572 -0.44480138 443.9554767 -0.44782074 449.98134708 -0.47247124 C455.49287003 -0.49483029 461.00389021 -0.49432821 466.51542117 -0.47526737 C468.51409807 -0.47244855 470.51280811 -0.47816918 472.51143137 -0.4930803 C475.21975842 -0.51205811 477.92626885 -0.50048536 480.634552 -0.48101807 C481.41820492 -0.49386729 482.20185784 -0.50671651 483.00925782 -0.5199551 C487.04662438 -0.45578952 488.80126924 -0.0295053 491.97676533 2.55283868 C494.54389029 5.82194244 495.03596702 7.34724178 494.81853771 11.41045189 C493.09449157 17.19595289 488.99048008 21.91449994 485.26189709 26.56865501 C484.22942846 27.85803652 483.23010043 29.17388633 482.24041271 30.49638939 C471.77125528 43.71502251 455.22184319 50.60549196 439.00603771 53.13701439 C433.58470896 53.50110158 428.19232615 53.49061338 422.76385021 53.42998314 C421.25928711 53.42436947 419.75471843 53.42010778 418.25014782 53.41711998 C414.34077633 53.4058102 410.43175345 53.37646755 406.5225172 53.34300804 C402.51316572 53.31200315 398.50375645 53.2985505 394.49431896 53.28349876 C386.66473507 53.25158035 378.83543572 53.2005583 371.00603771 53.13701439 C371.02331921 54.77126366 371.02331921 54.77126366 371.04094982 56.43852806 C370.94665705 66.42762703 367.19417933 74.12155738 360.22478771 81.11357689 C349.03812606 91.31549719 335.63537856 90.57468584 321.37298107 90.52519798 C319.39745831 90.52926874 317.42193783 90.53461344 315.44642162 90.54112816 C310.10767154 90.55474666 304.76909634 90.54952597 299.43034339 90.5399909 C293.82963944 90.53236698 288.22894992 90.53944739 282.62824535 90.5441494 C273.22607277 90.54959855 263.82397101 90.54243692 254.4218092 90.52812767 C243.56709747 90.51179806 232.71255479 90.51709536 221.85784715 90.53360689 C212.51995207 90.54724003 203.18210774 90.54913261 193.84420592 90.54129088 C188.27500804 90.53662504 182.70588952 90.53595963 177.13669682 90.54590034 C171.90071071 90.5545945 166.66494169 90.54850337 161.42897892 90.53121758 C159.51261791 90.52726601 157.59623849 90.52836386 155.67988491 90.53500557 C141.99232931 90.57805451 129.64768784 90.21315776 119.09588146 80.35185814 C113.05201639 73.89736953 110.0224643 67.68586548 109.40447521 58.84013939 C109.3263258 57.76925072 109.24817638 56.69836205 109.16765881 55.5950222 C109.11432384 54.78387962 109.06098888 53.97273705 109.00603771 53.13701439 C108.18965832 53.14589684 107.37327892 53.15477928 106.53216076 53.16393089 C98.7670537 53.24471066 91.00215576 53.30529625 83.23673534 53.34426308 C79.24623953 53.36497107 75.25609631 53.39297316 71.26580334 53.4387722 C67.40131799 53.4828401 63.53716765 53.50627697 59.67245007 53.51652336 C58.21192698 53.52380728 56.75141826 53.53802368 55.29104137 53.55993462 C36.03232463 53.83689229 17.45854145 49.22172341 3.24431896 35.44951439 C2.50568615 34.68638939 1.76705334 33.92326439 1.00603771 33.13701439 C0.2983424 32.41513939 -0.40935291 31.69326439 -1.13849354 30.94951439 C-6.90898603 24.77078438 -13.17395059 17.7588985 -14.68146229 9.26201439 C-13.87270919 5.58586394 -12.64025231 3.78330441 -9.99396229 1.13701439 C-6.84131802 -0.43930775 -3.46164495 -0.00524396 0 0 Z " fill="#BEC6ED" transform="translate(17.993962287902832,408.8629856109619)"/>
<path d="M0 0 C0.97868016 -0.0060911 1.95736033 -0.01218221 2.96569747 -0.01845789 C6.24830131 -0.03511977 9.53051861 -0.03030742 12.81315613 -0.0255127 C15.16541956 -0.03285121 17.51767938 -0.04143681 19.86993408 -0.05117798 C26.26256506 -0.07342693 32.65506726 -0.0763229 39.04773164 -0.07443047 C43.71089074 -0.07350926 48.37403157 -0.08076445 53.03718429 -0.08805802 C53.70280652 -0.08909751 54.36842874 -0.090137 55.05422133 -0.09120798 C56.05630052 -0.09277327 56.05630052 -0.09277327 57.07862373 -0.09437019 C69.71180051 -0.11327023 82.3449192 -0.11222329 94.97810426 -0.10540086 C106.52815591 -0.09982738 118.07798561 -0.1206428 129.6279854 -0.15376133 C141.49333164 -0.18751938 153.35857163 -0.20266392 165.22396678 -0.1980443 C171.88311529 -0.1958015 178.54208409 -0.20147474 185.20119667 -0.22593689 C191.46478152 -0.24818507 197.72790443 -0.24634159 203.99149132 -0.22600937 C206.28925815 -0.22259582 208.58705595 -0.22770312 210.88478088 -0.24199295 C214.02423085 -0.26016886 217.16211103 -0.24744726 220.30151367 -0.22705078 C221.66218506 -0.24582755 221.66218506 -0.24582755 223.05034477 -0.26498365 C229.24098327 -0.17888866 233.66906451 1.20497032 238.3412323 5.39440918 C240.59240789 9.06297878 240.58558623 12.40552048 240.56828308 16.65344238 C240.56813202 17.89435135 240.56798096 19.13526031 240.56782532 20.41377258 C240.55761373 21.75758018 240.54718176 23.10138613 240.5365448 24.44519043 C240.53281161 25.82809748 240.52996608 27.21100719 240.52796936 28.59391785 C240.52035692 32.22221258 240.50072921 35.85034555 240.4785614 39.47857666 C240.45805129 43.18552462 240.44895663 46.89249888 240.43888855 50.5994873 C240.41748085 57.86453477 240.38337405 65.12944925 240.3412323 72.39440918 C239.1862515 72.39495395 238.03127069 72.39549871 236.84129047 72.39605999 C209.42930171 72.4101017 182.01745023 72.44984261 154.60554813 72.5212648 C151.23220569 72.53003164 147.85886274 72.53858143 144.48551941 72.54699707 C143.47815425 72.54951566 143.47815425 72.54951566 142.45043828 72.55208514 C131.57387757 72.57876081 120.69736955 72.58785062 109.82077948 72.59045061 C98.66181871 72.5935092 87.50298834 72.6158175 76.34408969 72.65493375 C70.07564121 72.67629553 63.80745046 72.68884791 57.53896523 72.68056297 C51.64146898 72.67304316 45.74449581 72.68876188 39.84709549 72.72246933 C37.6803218 72.73072752 35.51349634 72.73042341 33.34672737 72.72100639 C30.39198883 72.70943399 27.43897876 72.72842755 24.484375 72.75517273 C23.62347584 72.74449947 22.76257668 72.73382621 21.87558967 72.72282952 C17.50709801 72.79679343 15.85727852 72.98023531 12.33228588 75.80936146 C9.64214427 79.30205724 9.21061285 80.97033752 9.13591003 85.30310059 C9.11596481 86.32400787 9.09601959 87.34491516 9.07546997 88.39675903 C9.05040123 90.05461929 9.05040123 90.05461929 9.02482605 91.74597168 C9.00404495 92.87514008 8.98326385 94.00430847 8.96185303 95.16769409 C8.89631895 98.7848689 8.83745456 102.40211799 8.7787323 106.01940918 C8.73555076 108.46733362 8.69193659 110.91525046 8.64787292 113.36315918 C8.54063363 119.37349668 8.43887443 125.38390853 8.3412323 131.39440918 C5.47608312 129.97504452 2.69672733 128.47556234 -0.0650177 126.86315918 C-0.89130676 126.38233887 -1.71759583 125.90151855 -2.56892395 125.40612793 C-4.29548645 124.39831543 -6.02204895 123.39050293 -7.74861145 122.38269043 C-8.57490051 121.90187012 -9.40118958 121.4210498 -10.2525177 120.92565918 C-11.00210754 120.48802246 -11.75169739 120.05038574 -12.52400208 119.5994873 C-14.54026342 118.46130501 -16.58458589 117.42193696 -18.6587677 116.39440918 C-18.75229383 102.54703329 -18.82252121 88.69970652 -18.86601639 74.85207939 C-18.88689182 68.42206748 -18.91520938 61.99226773 -18.96052551 55.56237793 C-19.00398375 49.35727986 -19.02790514 43.15238588 -19.03827667 36.94714737 C-19.04566799 34.57964998 -19.06010141 32.21216378 -19.08168793 29.84475327 C-19.11072064 26.52886557 -19.11472362 23.21382148 -19.11286926 19.89782715 C-19.12725037 18.91886978 -19.14163147 17.93991241 -19.15644836 16.93128967 C-19.12216879 11.26715576 -18.61514868 7.77848273 -14.6587677 3.39440918 C-10.03219456 -0.31200359 -5.66273584 -0.03301644 0 0 Z " fill="#E6E9F6" transform="translate(101.65876770019531,143.6055908203125)"/>
<path d="M0 0 C3.45719678 2.60144109 6.76066853 5.35875811 10.01953125 8.203125 C10.58639648 8.69312988 11.15326172 9.18313477 11.73730469 9.68798828 C34.71380016 29.71036291 46.87461623 55.8712285 52.33203125 85.578125 C52.49131104 86.4441333 52.65059082 87.3101416 52.81469727 88.20239258 C54.82440747 99.93400668 55.16647178 111.63549206 55.08203125 123.515625 C55.07751953 124.74474609 55.07300781 125.97386719 55.06835938 127.24023438 C55.05673414 130.22791856 55.04039684 133.21549355 55.01953125 136.203125 C12.14942891 136.84677067 12.14942891 136.84677067 -2.98046875 133.203125 C-3.83302246 132.99913086 -4.68557617 132.79513672 -5.56396484 132.58496094 C-34.96270415 125.30547494 -59.62088857 111.73944126 -77.98046875 87.203125 C-79.05167969 85.79740234 -79.05167969 85.79740234 -80.14453125 84.36328125 C-95.92983563 62.69334926 -107.37502512 36.78172836 -107.29296875 9.703125 C-107.30908203 8.63964844 -107.32519531 7.57617188 -107.34179688 6.48046875 C-107.34780811 -3.31784078 -106.00419705 -11.82647583 -99.078125 -19.10546875 C-72.41721174 -40.60300216 -22.85972453 -16.47822235 0 0 Z " fill="#B9EB6C" transform="translate(106.98046875,272.796875)"/>
<path d="M0 0 C0.9070572 -0.00260775 1.8141144 -0.00521549 2.74865818 -0.00790226 C3.75670978 -0.00567154 4.76476137 -0.00344082 5.80335999 -0.0011425 C6.86523246 -0.00270249 7.92710493 -0.00426248 9.02115536 -0.00586975 C12.6088083 -0.00988476 16.19641955 -0.00668817 19.78407288 -0.00355339 C22.3441419 -0.00490721 24.90421072 -0.00668703 27.46427917 -0.00886345 C33.71363177 -0.01296396 39.96296871 -0.01234442 46.21232152 -0.00945081 C51.28904523 -0.00719701 56.36576556 -0.00688415 61.44248962 -0.00797462 C62.16365933 -0.00812786 62.88482904 -0.00828109 63.62785238 -0.00843897 C65.09266512 -0.00875868 66.55747785 -0.00908289 68.02229059 -0.00941156 C81.77401455 -0.01226653 95.52573186 -0.00897907 109.27745473 -0.00361119 C121.08988547 0.00085686 132.90230638 0.00008093 144.71473694 -0.00452995 C158.41557381 -0.00987542 172.11640485 -0.01199183 185.81724262 -0.00891769 C187.27681796 -0.00859912 188.73639329 -0.00828475 190.19596863 -0.00797462 C190.9142016 -0.00782035 191.63243457 -0.00766607 192.37243217 -0.00750712 C197.44599766 -0.00664188 202.51955947 -0.00810499 207.59312439 -0.01045418 C214.41543689 -0.01354349 221.23772789 -0.01135985 228.06003952 -0.00555992 C230.57198429 -0.00423155 233.08393062 -0.00462773 235.59587479 -0.00682259 C239.00897087 -0.00953109 242.42200612 -0.00615666 245.83509827 -0.0011425 C246.84314986 -0.00337322 247.85120146 -0.00560395 248.88980007 -0.00790226 C249.79685727 -0.00529452 250.70391447 -0.00268677 251.63845825 0 C252.42735475 0.00016235 253.21625124 0.0003247 254.02905369 0.00049198 C255.81922913 0.12584114 255.81922913 0.12584114 256.81922913 1.12584114 C257.72735918 9.11738564 255.36677833 17.50996486 250.76063538 24.04771614 C243.45033059 32.38121704 236.03440722 37.33857467 224.79238582 38.2989974 C218.92715738 38.58502999 213.05665505 38.53439421 207.18617249 38.51402473 C205.21064973 38.51809549 203.23512925 38.52344019 201.25961304 38.52995491 C195.92086295 38.54357342 190.58228775 38.53835272 185.2435348 38.52881765 C179.64283085 38.52119373 174.04214134 38.52827414 168.44143677 38.53297615 C159.03926418 38.5384253 149.63716243 38.53126367 140.23500061 38.51695442 C129.38028889 38.50062482 118.52574621 38.50592212 107.67103857 38.52243364 C98.33314348 38.53606678 88.99529915 38.53795936 79.65739733 38.53011763 C74.08819946 38.52545179 68.51908094 38.52478638 62.94988823 38.5347271 C57.71390212 38.54342125 52.4781331 38.53733012 47.24217033 38.52004433 C45.32580932 38.51609276 43.4094299 38.51719061 41.49307632 38.52383232 C27.80552072 38.56688126 15.46087926 38.20198452 4.90907288 28.34068489 C-2.58466359 20.33781983 -5.26962485 12.072651 -5.18077087 1.12584114 C-3.62793522 -0.42699452 -2.16166507 0.00044486 0 0 Z " fill="#E6E9F6" transform="translate(132.18077087402344,460.87415885925293)"/>
<path d="M0 0 C5.03536777 -0.07432418 10.07041408 -0.12868401 15.10620117 -0.16479492 C16.81817184 -0.1798534 18.53010411 -0.20030455 20.24194336 -0.22631836 C22.70696505 -0.2628319 25.17147535 -0.27975562 27.63671875 -0.29296875 C28.77919319 -0.31619453 28.77919319 -0.31619453 29.94474792 -0.33988953 C34.49535835 -0.34132093 37.46004768 0.06607538 41 3 C43.5448129 6.59054237 44.37625865 9.04199546 44.38768005 13.42459106 C44.39758469 14.5009935 44.40748932 15.57739594 44.41769409 16.68641663 C44.41319244 17.85740402 44.4086908 19.02839142 44.40405273 20.23486328 C44.41091599 21.4761348 44.41777924 22.71740631 44.42485046 23.99629211 C44.4400068 27.39557178 44.44161383 30.79430258 44.43590808 34.19357538 C44.4328122 37.03850904 44.43891379 39.88339337 44.44494683 42.72832 C44.45899104 49.44815365 44.45743444 56.16786019 44.44604492 62.88769531 C44.43459077 69.79790059 44.44859367 76.70771653 44.4754414 83.61787045 C44.49767923 89.56631693 44.50421689 95.51464196 44.49836498 101.46312702 C44.49501014 105.00868662 44.49731014 108.55399734 44.51461601 112.09952164 C44.53311551 116.06275603 44.51881524 120.02552184 44.50170898 123.98876953 C44.51137695 125.14761154 44.52104492 126.30645355 44.53100586 127.50041199 C44.42737238 139.02198175 41.2313591 148.72187181 33 157 C26.05816764 162.67277863 20.29398895 166.27571796 11.16796875 166.1953125 C9.87568359 166.18886719 8.58339844 166.18242187 7.25195312 166.17578125 C5.8971327 166.15907327 4.54231499 166.14214342 3.1875 166.125 C1.81315749 166.11496003 0.43880797 166.10583596 -0.93554688 166.09765625 C-4.29054317 166.07411242 -7.64518199 166.04122567 -11 166 C-10.58790283 165.11739502 -10.17580566 164.23479004 -9.7512207 163.32543945 C-9.21070068 162.16230225 -8.67018066 160.99916504 -8.11328125 159.80078125 C-7.57743408 158.65005127 -7.04158691 157.49932129 -6.48950195 156.3137207 C-1.45035431 145.10304198 -0.85108334 134.78866452 -0.79467773 122.60742188 C-0.78508283 121.26635447 -0.77507185 119.92528998 -0.76467896 118.58422852 C-0.73779829 114.96500178 -0.71669832 111.34576223 -0.69667697 107.72649193 C-0.67471271 103.9361682 -0.64737541 100.14588321 -0.62062073 96.35559082 C-0.57083429 89.18768672 -0.52584373 82.01976097 -0.48259836 74.85181475 C-0.43310542 66.68730917 -0.37823225 58.52284249 -0.32291877 50.3583746 C-0.20931458 33.57228564 -0.10242914 16.78616094 0 0 Z " fill="#A8E237" transform="translate(342,216)"/>
<path d="M0 0 C55.44 0 110.88 0 168 0 C157.22464754 14.36713661 143.92241273 23.43564935 126 26 C121.76321153 26.25966019 117.5419716 26.253765 113.29833984 26.22705078 C112.06792969 26.22734283 110.83751953 26.22763489 109.56982422 26.22793579 C106.22744844 26.22678897 102.88532599 26.21682431 99.54299498 26.20278788 C96.03832478 26.19020478 92.53365048 26.18910409 89.02896118 26.18673706 C82.40647631 26.1805444 75.78405821 26.16416387 69.16160262 26.14403808 C61.61617909 26.12160976 54.07075222 26.11066829 46.5253036 26.10064721 C31.01682392 26.07979543 15.50843612 26.04314721 0 26 C0 17.42 0 8.84 0 0 Z " fill="#E6E9F6" transform="translate(162,383)"/>
<path d="M0 0 C11.59094834 -1.06064424 23.18021096 -1.78075373 34.8125 -2.1875 C36.08593388 -2.23222002 36.08593388 -2.23222002 37.38509369 -2.27784348 C74.19877999 -3.41919572 74.19877999 -3.41919572 89.29945374 10.07432556 C96.85508116 17.54626973 103.45109924 25.94565595 109 35 C109 35.33 109 35.66 109 36 C70.33199877 36.88960126 30.87662315 30.09012923 1.625 2.71484375 C0 1 0 1 0 0 Z " fill="#56BD91" transform="translate(41,373)"/>
<path d="M0 0 C6.17464913 -0.12372902 12.34857456 -0.21440144 18.52416992 -0.2746582 C20.6242327 -0.29978051 22.72420823 -0.33388458 24.82397461 -0.37719727 C27.8451084 -0.43794871 30.86508496 -0.46623263 33.88671875 -0.48828125 C34.82335861 -0.51408768 35.75999847 -0.5398941 36.72502136 -0.56648254 C41.35139534 -0.56846676 43.32859588 -0.52492369 47.07958984 2.40771484 C49.51448269 5.69447969 50.02704727 7.26408545 49.8125 11.2734375 C48.08845386 17.0589385 43.98444237 21.77748555 40.25585938 26.43164062 C39.22339075 27.72102213 38.22406272 29.03687194 37.234375 30.359375 C27.01590423 43.26148455 10.06695418 51.11170426 -6 53 C-13.78155949 53.46423058 -21.5846831 53.28527869 -29.375 53.1875 C-31.47915704 53.17241934 -33.58332459 53.15873695 -35.6875 53.14648438 C-40.79193077 53.11376202 -45.89584642 53.06216802 -51 53 C-51 52.67 -51 52.34 -51 52 C-50.23558594 51.92523438 -49.47117187 51.85046875 -48.68359375 51.7734375 C-35.28560005 50.12891842 -23.53843778 45.57126273 -13 37 C-12.46157471 36.57614014 -11.92314941 36.15228027 -11.3684082 35.71557617 C-6.86280944 32.04865795 -3.51351008 28.05523087 -0.1875 23.3125 C0.28880859 22.64927734 0.76511719 21.98605469 1.25585938 21.30273438 C6.22494921 14.86236372 6.22494921 14.86236372 7 7 C4.90741149 3.82503812 3.17308714 2.11539143 0 0 Z " fill="#A3AEE6" transform="translate(463,409)"/>
<path d="M0 0 C23.73615738 19.34479521 31.83865744 53.70925951 35.46484375 82.71875 C36.22416613 91.12330454 36.0974033 99.5692036 36 108 C35.15308594 107.22269531 34.30617187 106.44539063 33.43359375 105.64453125 C30.42783159 103.01288008 27.28139402 100.92666535 23.87608337 98.84550476 C13.54658585 92.28567804 2.4223602 83.55431567 -0.44737244 71.05078125 C-4.41148651 48.02495736 -1.7541346 23.15734731 0 0 Z " fill="#23B27F" transform="translate(126,290)"/>
<path d="M0 0 C8.98366976 -0.97377372 17.97127922 -1.62964265 27 -2 C27.99223194 -2.04086794 27.99223194 -2.04086794 29.00450897 -2.08256149 C45.32156147 -2.67536974 58.78503733 -2.15109574 71.31170654 9.20718384 C78.30575275 16.13029945 84.57462488 23.79364405 90 32 C90 32.33 90 32.66 90 33 C80.86399262 33.20892259 71.72881234 33.36863682 62.5909338 33.46630955 C58.34727807 33.51319934 54.10526123 33.57674447 49.86254883 33.67895508 C45.76455777 33.77705656 41.66813815 33.83061939 37.56906319 33.85389519 C36.00879743 33.87047134 34.44861377 33.9028451 32.88902092 33.95157051 C20.73082456 34.31616598 20.73082456 34.31616598 16.55799866 31.14303589 C14.72123748 28.8471032 13.33654181 26.61403454 12 24 C11.06136108 22.45699219 11.06136108 22.45699219 10.10375977 20.8828125 C9.63768311 19.97273438 9.17160645 19.06265625 8.69140625 18.125 C8.17255859 17.12082031 7.65371094 16.11664063 7.11914062 15.08203125 C6.60544922 14.06496094 6.09175781 13.04789062 5.5625 12 C4.75135742 10.42798828 4.75135742 10.42798828 3.92382812 8.82421875 C0 1.17498617 0 1.17498617 0 0 Z " fill="#58BE91" transform="translate(9,325)"/>
<path d="M0 0 C4.16560967 1.62930699 8.11418482 3.52964023 12.0625 5.625 C12.65482422 5.93050781 13.24714844 6.23601562 13.85742188 6.55078125 C15.11686925 7.21809054 16.36151843 7.91399203 17.59077454 8.63540649 C20.06402191 10.07564067 20.06402191 10.07564067 23.00151062 11.4168396 C27.89276942 14.04807496 31.38223545 15.97481495 33.05592346 21.46157837 C33.39083338 25.79490809 33.35310779 29.9769561 33.171875 34.3125 C33.14946268 35.89283779 33.13239563 37.47325959 33.12042236 39.05371094 C33.07483333 43.19226703 32.95720161 47.32568084 32.82397461 51.46221924 C32.70069236 55.69155293 32.64630267 59.92172709 32.5859375 64.15234375 C32.45765245 72.43724305 32.25316803 80.71798012 32 89 C31.5660643 88.61346252 31.1321286 88.22692505 30.68504333 87.82867432 C26.90869751 84.51967125 23.08474517 81.69584171 18.84765625 78.984375 C10.08939321 72.74664216 1.63694279 65.70706804 -0.69299316 54.73724365 C-2.999233 36.76465727 -1.48834777 17.99233577 0 0 Z " fill="#56BE91" transform="translate(78,257)"/>
<path d="M0 0 C33.1054403 -0.02286548 66.21087856 -0.04049777 99.31632495 -0.05106533 C103.22056755 -0.05231611 107.12481015 -0.05361042 111.02905273 -0.05493164 C112.19499903 -0.05532511 112.19499903 -0.05532511 113.3844998 -0.05572652 C125.9870867 -0.06008339 138.58966907 -0.06797103 151.19225328 -0.0771528 C164.11394963 -0.08648887 177.03564358 -0.09205551 189.95734316 -0.09408849 C197.93720042 -0.09546382 205.91704485 -0.09981492 213.89689816 -0.10791647 C220.00544044 -0.11380401 226.11397157 -0.11445908 232.22251701 -0.11310768 C234.73607462 -0.11338422 237.24963268 -0.11539202 239.76318741 -0.11920547 C243.17852329 -0.12413562 246.593803 -0.12300081 250.00914001 -0.12025452 C251.01787373 -0.12316736 252.02660745 -0.1260802 253.06590885 -0.12908131 C253.97358275 -0.12709026 254.88125665 -0.12509921 255.81643581 -0.12304783 C256.60587438 -0.12342755 257.39531295 -0.12380727 258.20867389 -0.1241985 C260 0 260 0 261 1 C261.90813006 8.9915445 259.5475492 17.38412372 254.94140625 23.921875 C249.18781517 30.48077478 242.98149329 36.44000197 233.84429932 37.1729126 C231.30262 37.23070617 228.76872529 37.22487287 226.2265625 37.1953125 C225.3028183 37.1924826 224.3790741 37.18965271 223.42733765 37.18673706 C220.49309024 37.17559179 217.5591543 37.15049765 214.625 37.125 C212.62891068 37.11496289 210.63281654 37.10583832 208.63671875 37.09765625 C203.75769351 37.07567097 198.87889946 37.04118017 194 37 C196.44532206 35.36978529 198.87020878 33.92001943 201.4375 32.5 C202.19933594 32.0771875 202.96117187 31.654375 203.74609375 31.21875 C206 30 206 30 208.16015625 29.09375 C210.4889333 27.70933902 210.94587085 26.4626638 212 24 C212.4021875 23.38382812 212.804375 22.76765625 213.21875 22.1328125 C217.9633216 14.69772163 217.58806933 10.88351472 219 1 C146.73 1 74.46 1 0 1 C0 0.67 0 0.34 0 0 Z " fill="#D4D9F3" transform="translate(128,461)"/>
<path d="M0 0 C4.59983633 1.06781915 4.59983633 1.06781915 6.5 3.8125 C7.41911665 6.56984994 7.62867071 8.22203801 7.6418457 11.06518555 C7.64888016 11.92005051 7.65591461 12.77491547 7.66316223 13.65568542 C7.66732651 14.57755142 7.67149078 15.49941742 7.67578125 16.44921875 C7.69898819 18.40821377 7.72310588 20.36719817 7.74804688 22.32617188 C7.78308373 25.40916969 7.8124641 28.49177897 7.82592773 31.57495117 C7.84147909 34.55435172 7.88174236 37.5326203 7.92578125 40.51171875 C7.92387283 41.42346359 7.92196442 42.33520844 7.91999817 43.27458191 C8.05790375 50.5551966 9.76358698 56.00044629 14.90234375 61.28125 C16.15724609 62.28671875 16.15724609 62.28671875 17.4375 63.3125 C26.17049438 70.83828633 29.89736398 79.21928615 30.8125 90.75 C30.509617 93.71825341 30.26744789 95.42644535 28.5 97.8125 C25.80412197 99.90929403 24.407056 99.80760821 20.9375 99.625 C16.56324778 98.59108584 16.56324778 98.59108584 14.5 95.8125 C13.796875 92.95703125 13.796875 92.95703125 13.25 89.625 C11.84012049 82.95404378 9.43630277 79.37830764 4.5 74.8125 C-6.24975723 64.06274277 -9.62968585 54.28405221 -9.703125 39.21484375 C-9.70882507 38.30295792 -9.71452515 37.39107208 -9.72039795 36.45155334 C-9.72980983 34.53110909 -9.7363667 32.61064897 -9.74023438 30.69018555 C-9.74997986 27.75606358 -9.78105507 24.82263095 -9.8125 21.88867188 C-9.81902715 20.0182333 -9.82427875 18.14778976 -9.828125 16.27734375 C-9.8404718 15.40327377 -9.8528186 14.5292038 -9.86553955 13.62864685 C-9.84815793 8.87287869 -9.64060152 5.6435003 -6.5 1.8125 C-3.5 -0.1875 -3.5 -0.1875 0 0 Z " fill="#D5DAF3" transform="translate(178.5,13.1875)"/>
<path d="M0 0 C1.91880403 1.3931742 3.81345223 2.80588422 5.68659973 4.26031494 C7.94899861 6.0217179 7.94899861 6.0217179 10.32060242 7.40716553 C12.8187355 9.10419948 14.35791396 10.45187624 16 13 C16.67415689 17.520882 16.37637833 21.85431693 15.96604156 26.37854958 C15.62549325 30.29867957 15.4664229 34.22794934 15.28149414 38.15795898 C15.23999929 38.9787604 15.19850445 39.79956182 15.15575218 40.64523602 C12.69827794 71.83055939 12.69827794 71.83055939 24.828125 99.29296875 C31.21319377 106.18557773 38.70181052 112.34347132 46.68963623 117.30693054 C48.86979662 118.75709138 50.44341189 119.8883887 52 122 C52.62087941 125.752782 52.46038944 129.23552519 52 133 C46.2341793 133.81452615 41.9142798 134.10265248 36.71435547 131.10742188 C33.18001859 128.43920327 30.04018598 125.40117536 26.9375 122.25 C26.37839935 121.69556213 25.81929871 121.14112427 25.24325562 120.56988525 C14.00229269 109.19432554 12.21666221 99.2346433 12.14941406 83.37304688 C11.90819497 77.92748645 10.62935799 72.86230491 9.1875 67.625 C8.84875854 66.31764893 8.84875854 66.31764893 8.50317383 64.98388672 C7.43730498 61.12711962 6.29956812 57.58751838 4.4765625 54.01220703 C-1.10511098 42.93957876 -0.69538409 32.78750553 -0.375 20.625 C-0.34483477 18.61722791 -0.31747065 16.60941169 -0.29296875 14.6015625 C-0.22755739 9.73326462 -0.12440568 4.86713292 0 0 Z " fill="#A6E139" transform="translate(110,276)"/>
<path d="M0 0 C11.55 0 23.1 0 35 0 C35 0.66 35 1.32 35 2 C35.85980469 2.103125 36.71960938 2.20625 37.60546875 2.3125 C48.86994021 4.59391194 58.1505332 12.29120848 64.7421875 21.41015625 C69.30983459 28.57977145 73.94336717 37.2738537 73 46 C71 43 71 43 69.25 39.625 C66.17557767 34.21904549 61.92895123 30.96741301 56 29 C53.2829092 28.68404797 53.2829092 28.68404797 50.39941406 28.69702148 C48.75311005 28.67205849 48.75311005 28.67205849 47.07354736 28.64659119 C45.89943298 28.63817703 44.7253186 28.62976288 43.515625 28.62109375 C42.30428894 28.60409927 41.09295288 28.5871048 39.84490967 28.56959534 C35.97999255 28.51649829 32.11508636 28.47616527 28.25 28.4375 C24.37068478 28.39362936 20.49145438 28.34701029 16.61224365 28.29469299 C14.19844935 28.26263375 11.7845796 28.23577603 9.3706665 28.21446228 C8.28573914 28.20097244 7.20081177 28.1874826 6.08300781 28.17358398 C5.12324036 28.16407211 4.1634729 28.15456024 3.17462158 28.14476013 C1 28 1 28 0 27 C-0.08758003 25.00035018 -0.10696576 22.9976389 -0.09765625 20.99609375 C-0.09515869 19.90224365 -0.09266113 18.80839355 -0.09008789 17.68139648 C-0.08098389 16.28091064 -0.07187988 14.8804248 -0.0625 13.4375 C-0.041875 9.003125 -0.02125 4.56875 0 0 Z " fill="#E6E9F6" transform="translate(412,186)"/>
<path d="M0 0 C0.33 0 0.66 0 1 0 C1 11.80092657 -4.61597328 22.85558491 -12.5 31.5 C-25.71069327 43.58768225 -40.73569605 46.34702903 -58.0625 46.125 C-59.41861315 46.11494631 -60.77473355 46.1058247 -62.13085938 46.09765625 C-65.42065064 46.07424137 -68.71034924 46.03837571 -72 46 C-72 37.09 -72 28.18 -72 19 C-66.616875 18.92652344 -66.616875 18.92652344 -61.125 18.8515625 C-57.63325989 18.79748843 -54.14158604 18.74020613 -50.64990234 18.68261719 C-48.23100765 18.64443263 -45.81205821 18.60956174 -43.39306641 18.578125 C-39.90767914 18.53224578 -36.42266534 18.47428871 -32.9375 18.4140625 C-31.32609131 18.39673569 -31.32609131 18.39673569 -29.68212891 18.37905884 C-21.11962093 18.21233465 -13.92489945 17.53991956 -7 12 C-3.37394813 8.20912759 -1.33111207 5.08242791 0 0 Z " fill="#E6E9F7" transform="translate(484,299)"/>
<path d="M0 0 C5.86970122 4.87336087 11.26604835 10.12056808 16.65234375 15.51953125 C18.00254356 16.86829597 18.00254356 16.86829597 19.38002014 18.24430847 C21.26964342 20.13325439 23.15823816 22.02316308 25.04516602 23.91479492 C27.46847733 26.34385209 29.89631743 28.76832574 32.32547665 31.19153309 C34.64518724 33.50677961 36.961105 35.82581218 39.27734375 38.14453125 C40.15220932 39.01737259 41.02707489 39.89021393 41.92845154 40.789505 C42.72670853 41.59091415 43.52496552 42.3923233 44.34741211 43.21801758 C45.40828285 44.28008171 45.40828285 44.28008171 46.49058533 45.36360168 C48 47 48 47 48 48 C32.49 48 16.98 48 1 48 C-2.66947534 38.82631164 -3.34201741 30.19839262 -3.3125 20.375 C-3.32861328 19.29476563 -3.34472656 18.21453125 -3.36132812 17.1015625 C-3.36524742 10.67391949 -2.68634899 5.85468144 0 0 Z " fill="#58BE91" transform="translate(3,262)"/>
<path d="M0 0 C0 15.51 0 31.02 0 47 C-7.875 40.25 -7.875 40.25 -11.55834961 36.55517578 C-12.78883278 35.32457932 -12.78883278 35.32457932 -14.04417419 34.06912231 C-14.90487015 33.20326508 -15.7655661 32.33740784 -16.65234375 31.4453125 C-17.55247696 30.54376434 -18.45261017 29.64221619 -19.38002014 28.71334839 C-21.75072823 26.33801783 -24.11924515 23.96054595 -26.48669434 21.58197021 C-28.91180728 19.14655283 -31.33982085 16.71403088 -33.76757812 14.28125 C-38.51437128 9.52347231 -43.25829281 4.7628462 -48 0 C-38.32492022 -9.67507978 -11.34222668 -3.78074223 0 0 Z " fill="#57BE91" transform="translate(62,251)"/>
<path d="M0 0 C2.875 2 2.875 2 5 5 C6.28221028 12.97819732 3.54418161 21.72963948 -0.54296875 28.58984375 C-3.41842739 32.43914193 -6.58344707 35.59384596 -10.25 38.6875 C-15.22502347 42.89418008 -16.83300528 46.77069291 -17.875 53.125 C-18.52001612 56.60179419 -18.89151629 57.86672002 -21.1875 60.6875 C-24.93460999 62.43615133 -27.05469308 62.09591859 -31 61 C-33.77406642 59.33556015 -33.97592262 58.0907532 -34.8125 54.9375 C-35.30267747 44.64377317 -31.67087983 36.92670714 -25.625 28.8125 C-23.59160347 26.63386086 -21.66748416 24.86384742 -19.375 23 C-14.59447629 18.97647896 -13.11278379 14.94408598 -12.125 8.875 C-11.47865834 5.35720603 -11.14729865 4.17184842 -8.75 1.375 C-5.4114286 -0.2942857 -3.68092627 -0.69017368 0 0 Z " fill="#D5DAF3" transform="translate(342,50)"/>
<path d="M0 0 C4.1859717 1.57271802 8.11852905 3.5319457 12.0625 5.625 C12.65482422 5.93050781 13.24714844 6.23601562 13.85742188 6.55078125 C15.15177063 7.23658279 16.42767432 7.95790247 17.68701172 8.70605469 C20.08695085 10.10803302 20.08695085 10.10803302 23.14501953 11.30175781 C26.96289126 13.18276629 29.28468213 14.6967292 32 18 C33.99777235 24.90304244 33.12251362 32.41755546 32.75 39.5 C32.68975412 41.4868184 32.63501041 43.47381174 32.5859375 45.4609375 C32.45419814 50.31163233 32.24750959 55.15388918 32 60 C29.84902043 57.18367505 27.94046971 54.30684759 26.09570312 51.27978516 C22.63676865 45.66132875 18.96927307 40.48647937 14.5 35.625 C14.04197998 35.12081543 13.58395996 34.61663086 13.11206055 34.09716797 C10.97646801 31.82156751 8.92373628 29.95055551 6.30078125 28.25 C3.31602757 26.30077311 1.79055233 25.12265406 0 22 C-1.10422388 14.7383727 -0.55047145 7.29445244 0 0 Z " fill="#23B27F" transform="translate(78,257)"/>
<path d="M0 0 C1.99301736 1.58066894 2.86543351 2.73086702 4 5 C4.10876468 6.33125933 4.15890727 7.66760139 4.17700195 9.00317383 C4.18983719 9.82775589 4.20267242 10.65233795 4.21589661 11.50190735 C4.22328354 12.39459824 4.23067047 13.28728912 4.23828125 14.20703125 C4.25038887 15.58334969 4.25038887 15.58334969 4.26274109 16.98747253 C4.27658493 18.93181466 4.28730574 20.87618112 4.29516602 22.82055664 C4.31237165 25.79034652 4.35625382 28.75902113 4.40039062 31.72851562 C4.41051818 33.61717931 4.41903409 35.50585246 4.42578125 37.39453125 C4.44328934 38.28114944 4.46079742 39.16776764 4.47883606 40.08125305 C4.46417814 44.26002185 4.35078196 46.43534418 2.09838867 50.06103516 C-0.16404842 52.15158494 -0.97317994 52.66299988 -4 52.5625 C-4.66 52.56378906 -5.32 52.56507812 -6 52.56640625 C-9.08565416 51.69253935 -10.08499423 50.60992205 -12 48 C-12.600061 44.6271726 -12.5363307 41.28899854 -12.49609375 37.87109375 C-12.49754898 36.88504654 -12.49900421 35.89899933 -12.50050354 34.8830719 C-12.49884513 32.80100547 -12.48729039 30.71892671 -12.46655273 28.63696289 C-12.43757354 25.44559856 -12.44595006 22.25589267 -12.45898438 19.06445312 C-12.4527477 17.04165858 -12.44435732 15.01886928 -12.43359375 12.99609375 C-12.43652939 12.03980576 -12.43946503 11.08351776 -12.44248962 10.09825134 C-12.42980545 9.21045486 -12.41712128 8.32265839 -12.40405273 7.40795898 C-12.39864975 6.62726547 -12.39324677 5.84657196 -12.38768005 5.04222107 C-11.89665556 2.45560213 -11.06162029 1.59621949 -9 0 C-5.45026831 -1.1832439 -3.60040463 -0.90010116 0 0 Z " fill="#BDC6ED" transform="translate(258,14)"/>
<path d="M0 0 C0 5.28 0 10.56 0 16 C-3.4959375 14.205625 -3.4959375 14.205625 -7.0625 12.375 C-17.41377177 7.15293867 -27.98222366 2.53922955 -39.2421875 -0.359375 C-41 -1 -41 -1 -42 -3 C-28.74421731 -6.24204547 -12.80665357 -4.26888452 0 0 Z " fill="#25B280" transform="translate(62,251)"/>
<path d="M0 0 C7.88862073 6.76167491 7.88862073 6.76167491 11.40234375 10.26953125 C12.51899414 11.38424805 12.51899414 11.38424805 13.65820312 12.52148438 C14.41037109 13.27751953 15.16253906 14.03355469 15.9375 14.8125 C16.71673828 15.58787109 17.49597656 16.36324219 18.29882812 17.16210938 C19.03423828 17.89880859 19.76964844 18.63550781 20.52734375 19.39453125 C21.19499756 20.06331299 21.86265137 20.73209473 22.55053711 21.42114258 C24 23 24 23 24 24 C16.08 24 8.16 24 0 24 C0 16.08 0 8.16 0 0 Z " fill="#23B27E" transform="translate(126,385)"/>
<path d="M0 0 C4.95 1.65 9.9 3.3 15 5 C15 12.26 15 19.52 15 27 C12.03 25.02 9.06 23.04 6 21 C4.83210938 20.39671875 3.66421875 19.7934375 2.4609375 19.171875 C0 17 0 17 -0.45996094 15.09960938 C-0.59196429 12.78494595 -0.52460962 10.56319497 -0.375 8.25 C-0.34792969 7.45722656 -0.32085937 6.66445313 -0.29296875 5.84765625 C-0.22247273 3.89726634 -0.11485499 1.94828099 0 0 Z " fill="#A8E238" transform="translate(62,251)"/>
</svg>
