<?xml version="1.0" encoding="UTF-8"?>
<svg version="1.1" xmlns="http://www.w3.org/2000/svg" width="512" height="512">
<path d="M0 0 C5.82485779 3.51996782 10.54466582 8.98962934 12.5625 15.5 C13.41676431 23.81417703 13.14309305 30.42090165 8.5625 37.5 C8.2325 37.83 7.9025 38.16 7.5625 38.5 C9.28533203 39.02787109 9.28533203 39.02787109 11.04296875 39.56640625 C24.71755017 43.8665798 36.50827091 49.13666637 47.5625 58.5 C48.55830078 59.27923828 48.55830078 59.27923828 49.57421875 60.07421875 C55.61845795 64.97848356 60.30900262 71.01144728 64.5625 77.5 C64.5625 78.16 64.5625 78.82 64.5625 79.5 C65.5525 79.83 66.5425 80.16 67.5625 80.5 C67.645 81.44875 67.7275 82.3975 67.8125 83.375 C68.06 84.40625 68.3075 85.4375 68.5625 86.5 C69.87946898 87.19843748 71.21685287 87.85855163 72.5625 88.5 C74.24438092 89.91660864 75.88780731 91.37956086 77.5 92.875 C80.02777671 95.21133767 82.53590358 97.47892506 85.234375 99.6171875 C87.76927808 101.66722657 89.61153278 103.89871037 91.5625 106.5 C94.82252052 105.34321852 97.711545 103.86141899 100.6875 102.125 C115.77771385 93.58146184 134.59811682 91.40702281 151.40673828 95.93408203 C168.31381365 101.3320989 182.07284263 113.06024106 190.25390625 128.7421875 C195.78312886 140.28027613 196.88622379 149.94565399 196.8984375 162.57421875 C196.90487783 164.14590064 196.91160707 165.71758138 196.91860962 167.28926086 C196.93054431 170.57657648 196.93429454 173.86378732 196.93310547 177.15112305 C196.93290284 181.32899292 196.96016337 185.5061783 196.99464989 189.68388653 C197.01707572 192.92962118 197.02093821 196.1751954 197.01988602 199.42099953 C197.02222007 200.9593319 197.03091713 202.49767021 197.04655075 204.03592491 C197.21722134 222.56744692 191.7210852 238.72702394 178.89233398 252.38720703 C167.38952427 263.99733728 151.81524778 270.66203552 135.55664062 270.82885742 C134.63044922 270.82345947 133.70425781 270.81806152 132.75 270.8125 C131.78384766 270.80903564 130.81769531 270.80557129 129.82226562 270.80200195 C121.29178046 270.67220893 113.70875792 269.64716928 106.0625 265.6875 C103.68174498 264.19709744 103.68174498 264.19709744 101.58203125 265.1953125 C99.3228442 266.65482599 98.27571538 267.98088685 96.75 270.1875 C93.18343296 274.95846332 89.14703322 279.11618991 84.9375 283.3125 C83.96913208 284.28159302 83.96913208 284.28159302 82.98120117 285.27026367 C81.19334945 287.03830923 79.41230866 288.79674742 77.5625 290.5 C76.87042953 291.18356064 76.17835907 291.86712128 75.46531677 292.57139587 C71.73256969 295.05139788 68.61705832 295.07429921 64.28393555 295.04589844 C63.46390549 295.05623611 62.64387543 295.06657379 61.79899597 295.07722473 C59.09886931 295.10663227 56.39949291 295.10815145 53.69921875 295.109375 C51.82304964 295.12435805 49.94689372 295.14108547 48.070755 295.15948486 C43.14048656 295.20315657 38.21039605 295.2231571 33.27996826 295.23822021 C28.24578329 295.25779191 23.21179044 295.29976188 18.17773438 295.33984375 C8.30604885 295.41514394 -1.56559367 295.46543661 -11.4375 295.5 C-10.82914307 295.95383057 -10.22078613 296.40766113 -9.59399414 296.87524414 C-8.79082764 297.48489014 -7.98766113 298.09453613 -7.16015625 298.72265625 C-6.36617432 299.32086182 -5.57219238 299.91906738 -4.75415039 300.53540039 C-1.35535893 303.41769303 1.11342925 306.80238338 3.5625 310.5 C3.8925 307.86 4.2225 305.22 4.5625 302.5 C23.66785109 301.81426457 39.09070338 304.08609162 53.6875 317.53515625 C60.30697793 324.4718175 67.24668735 334.50427141 67.69140625 344.35546875 C67.64886719 345.06316406 67.60632813 345.77085937 67.5625 346.5 C68.2225 346.5 68.8825 346.5 69.5625 346.5 C69.583125 345.46875 69.60375 344.4375 69.625 343.375 C71.12270151 331.66380628 79.04371965 320.937832 87.87109375 313.57421875 C96.46163468 307.15536657 106.55168483 302.33218829 117.42578125 302.40234375 C118.31201172 302.40556641 119.19824219 302.40878906 120.11132812 302.41210938 C121.02333984 302.42048828 121.93535156 302.42886719 122.875 302.4375 C123.80634766 302.44201172 124.73769531 302.44652344 125.69726562 302.45117188 C127.98574373 302.46290766 130.27408808 302.47932637 132.5625 302.5 C133.24823543 321.60535109 130.97640838 337.02820338 117.52734375 351.625 C105.64798234 362.96116993 92.7507611 366.5 76.5625 366.5 C76.8925 382.34 77.2225 398.18 77.5625 414.5 C80.2025 410.87 82.8425 407.24 85.5625 403.5 C97.49926814 391.56323186 112.69697515 382.38820676 130.046875 382.3671875 C131.06394531 382.36589844 132.08101563 382.36460937 133.12890625 382.36328125 C134.17949219 382.36714844 135.23007812 382.37101562 136.3125 382.375 C137.37855469 382.37113281 138.44460938 382.36726563 139.54296875 382.36328125 C140.55488281 382.36457031 141.56679688 382.36585938 142.609375 382.3671875 C143.99914551 382.36887939 143.99914551 382.36887939 145.41699219 382.37060547 C147.5625 382.5 147.5625 382.5 148.5625 383.5 C150.18281393 403.95769092 147.1589643 421.82850638 134.3125 438.3125 C123.53403279 450.69046993 109.12507055 460.34487034 92.5625 462.5 C87.22615481 462.78601004 81.90053781 462.68290231 76.5625 462.5 C76.5625 465.14 76.5625 467.78 76.5625 470.5 C71.2825 470.5 66.0025 470.5 60.5625 470.5 C60.5625 467.86 60.5625 465.22 60.5625 462.5 C59.54671875 462.53480469 58.5309375 462.56960938 57.484375 462.60546875 C39.32818713 463.04641107 23.97277846 458.02255158 10.08984375 445.93359375 C-6.15271154 430.29354437 -11.63086176 412.41830798 -12.4375 390.5 C-13.04335938 390.82613281 -13.64921875 391.15226562 -14.2734375 391.48828125 C-15.11132812 391.92527344 -15.94921875 392.36226563 -16.8125 392.8125 C-18.03066406 393.45638672 -18.03066406 393.45638672 -19.2734375 394.11328125 C-27.76984248 397.8370143 -35.32635423 398.92749776 -44.5703125 398.79296875 C-45.68816132 398.78872391 -46.80601013 398.78447906 -47.95773315 398.78010559 C-51.49291094 398.76344759 -55.02749743 398.72581916 -58.5625 398.6875 C-60.97395004 398.67243654 -63.38540911 398.65875106 -65.796875 398.64648438 C-71.67730768 398.61358624 -77.55730393 398.56189346 -83.4375 398.5 C-84.9225 402.955 -84.9225 402.955 -86.4375 407.5 C-90.0675 414.76 -93.6975 422.02 -97.4375 429.5 C-79.6175 429.83 -61.7975 430.16 -43.4375 430.5 C-43.4375 440.02216077 -45.15893673 446.92838175 -51.734375 453.96875 C-58.52334528 460.07259484 -65.63953599 462.74349666 -74.77337646 462.76742554 C-75.49015257 462.77195665 -76.20692868 462.77648776 -76.94542527 462.78115618 C-79.33575359 462.79376792 -81.72585313 462.79218192 -84.11621094 462.79052734 C-85.83484183 462.79651468 -87.55347004 462.8033207 -89.27209473 462.81088257 C-93.93343365 462.82853049 -98.59469912 462.83323749 -103.25606823 462.83451414 C-106.17119037 462.83593717 -109.08629392 462.84020967 -112.00141144 462.84550858 C-122.17966393 462.864006 -132.35786407 462.87217969 -142.53613281 462.87060547 C-152.00987923 462.86940467 -161.4833976 462.89049566 -170.95708632 462.9220928 C-179.10168072 462.94828484 -187.24620078 462.95897151 -195.39083695 462.95769465 C-200.25034242 462.95718581 -205.10964523 462.96282569 -209.96910858 462.98405075 C-214.54270906 463.00348209 -219.11591463 463.00352426 -223.68952942 462.98901749 C-225.3623996 462.98693424 -227.03529481 462.99160128 -228.70812225 463.0037384 C-240.13254209 463.08121888 -250.14861559 462.38242506 -258.90625 454.203125 C-265.46078658 446.91287513 -267.4375 440.3214775 -267.4375 430.5 C-240.7075 430.005 -240.7075 430.005 -213.4375 429.5 C-217.3975 421.58 -221.3575 413.66 -225.4375 405.5 C-241.22761054 367.35765506 -251.59709687 327.99390405 -251.9375 286.5 C-251.95603027 285.2003833 -251.97456055 283.9007666 -251.99365234 282.56176758 C-251.94693527 275.64535014 -251.65914049 271.07074643 -247.4375 265.5 C-246.90511719 264.78972656 -246.37273437 264.07945312 -245.82421875 263.34765625 C-232.38199556 249.22559648 -210.99123128 243.9005231 -192.4375 240.5 C-192.4375 236.43933917 -195.46054211 232.26610177 -197.33007812 228.67578125 C-202.83170946 217.5110028 -203.93377419 204.89935285 -205.19140625 192.66796875 C-205.33848156 191.29697849 -205.48636194 189.92607438 -205.63499451 188.55525208 C-206.02005022 184.99042696 -206.3973038 181.42482975 -206.77185059 177.85888672 C-207.37303959 172.13713713 -207.98149213 166.41620252 -208.59928703 160.69622231 C-208.81084448 158.71992493 -209.0158098 156.74292538 -209.22059631 154.76591492 C-209.97992442 142.90695664 -209.97992442 142.90695664 -214.875 132.5625 C-221.26645895 127.41815499 -226.85471865 127.31807262 -234.75 126.9375 C-237.616875 126.793125 -240.48375 126.64875 -243.4375 126.5 C-243.4375 115.94 -243.4375 105.38 -243.4375 94.5 C-237.10537176 94.40763508 -230.7756272 94.3281581 -224.44335938 94.28027344 C-222.29418979 94.26029016 -220.14507364 94.23309406 -217.99609375 94.19824219 C-201.81977476 93.94266837 -189.76837834 94.45354096 -176.4375 104.5 C-175.57125 105.0775 -174.705 105.655 -173.8125 106.25 C-165.23389455 114.3770999 -161.05277114 124.93087401 -157.78515625 136.02734375 C-157.48996094 137.02805908 -157.19476563 138.02877441 -156.890625 139.05981445 C-156.31157489 141.05268016 -155.74694393 143.04981193 -155.19921875 145.05151367 C-153.23292189 151.91307041 -150.38377355 157.55827372 -146.4375 163.5 C-145.880625 161.9840625 -145.880625 161.9840625 -145.3125 160.4375 C-144.68926414 158.79099782 -144.06393811 157.1452865 -143.4375 155.5 C-143.02371094 154.3965625 -142.60992187 153.293125 -142.18359375 152.15625 C-136.71163335 137.9619549 -130.10388435 125.34322366 -120.4375 113.5 C-119.74068115 112.64293457 -119.74068115 112.64293457 -119.02978516 111.76855469 C-112.69865376 104.03073745 -106.16039458 96.89782255 -98.4375 90.5 C-97.55964844 89.76007813 -96.68179688 89.02015625 -95.77734375 88.2578125 C-93.4375 86.5 -93.4375 86.5 -91.4375 86.5 C-91.1075 84.52 -90.7775 82.54 -90.4375 80.5 C-89.4475 80.17 -88.4575 79.84 -87.4375 79.5 C-86.73911054 77.84637538 -86.07791182 76.17693021 -85.4375 74.5 C-73.46082147 57.01834591 -56.1655927 46.79931673 -36.4375 40.5 C-34.43704165 39.83470995 -32.43689696 39.16847308 -30.4375 38.5 C-31.076875 37.571875 -31.71625 36.64375 -32.375 35.6875 C-36.46980891 29.35915896 -35.99962997 22.83213008 -35.4375 15.5 C-33.77311428 8.84245713 -28.96538702 4.30878622 -23.4375 0.5 C-16.65568202 -2.91366677 -6.96443471 -3.08620048 0 0 Z M111.5625 134.5 C112.84909229 138.49520765 114.12513136 142.44594157 115.734375 146.32421875 C125.71720059 170.3877582 127.03330785 198.36909937 120.10253906 223.47558594 C119.13012886 227.12080537 118.35730123 230.81267854 117.5625 234.5 C125.48092374 238.3008434 133.83082888 238.82269333 142.40625 236.84375 C150.92005396 233.79559796 157.51490501 228.20356313 161.51397705 220.05712891 C164.72224492 212.23283233 164.8633507 203.65380658 164.828125 195.3125 C164.83003845 194.28874268 164.8319519 193.26498535 164.83392334 192.21020508 C164.83527425 190.06233471 164.83165499 187.91445588 164.82324219 185.76660156 C164.81252721 182.50827419 164.82317521 179.25049805 164.8359375 175.9921875 C164.83461571 173.8906238 164.83205292 171.78906044 164.828125 169.6875 C164.83217346 168.72884033 164.83622192 167.77018066 164.84039307 166.7824707 C164.75906069 154.8533754 163.02781044 144.85053632 154.96484375 135.68359375 C148.56964128 129.65123964 141.25110785 127.28301654 132.5625 127 C124.36851751 127.24099949 117.98292519 129.43047875 111.5625 134.5 Z M-61.4375 318.5 C-61.65664062 319.72589844 -61.87578125 320.95179688 -62.1015625 322.21484375 C-64.20756035 333.7400868 -66.6928667 345.1239243 -69.50634766 356.49780273 C-69.75690918 357.51302002 -70.0074707 358.5282373 -70.265625 359.57421875 C-70.4915332 360.47744873 -70.71744141 361.38067871 -70.95019531 362.3112793 C-71.5099408 364.45164792 -71.5099408 364.45164792 -71.4375 366.5 C-66.95838918 366.55856225 -62.4793783 366.59378482 -58 366.625 C-56.73994141 366.64175781 -55.47988281 366.65851563 -54.18164062 366.67578125 C-44.74328657 366.72506769 -36.05790049 366.76566263 -28.4375 360.5 C-23.07741415 355.10135238 -20.16488086 350.49915968 -20.0625 342.6875 C-20.19504479 335.49473582 -22.18262946 331.18146766 -26.75 325.75 C-34.89117369 318.93413366 -42.48121399 318.32862069 -52.875 318.4375 C-54.11540039 318.44426758 -54.11540039 318.44426758 -55.38085938 318.45117188 C-57.39977146 318.46284189 -59.41864574 318.48077282 -61.4375 318.5 Z M12.5625 342.5 C12.47613281 343.43199219 12.38976562 344.36398437 12.30078125 345.32421875 C10.95302344 357.55295705 8.28249717 368.17043805 0.015625 377.6953125 C-1.64592548 379.54416249 -1.64592548 379.54416249 -2.4375 382.5 C-1.49390625 382.53738281 -0.5503125 382.57476562 0.421875 382.61328125 C19.39795894 383.5849482 35.65286351 388.98527432 49.5625 402.5 C52.40772466 405.71387503 55.02746974 409.03824877 57.5625 412.5 C58.5525 413.82 59.5425 415.14 60.5625 416.5 C60.5625 400 60.5625 383.5 60.5625 366.5 C54.9525 365.84 49.3425 365.18 43.5625 364.5 C31.64790968 360.52846989 22.11161843 354.53607204 14.8046875 344.1875 C14.39476562 343.630625 13.98484375 343.07375 13.5625 342.5 C13.2325 342.5 12.9025 342.5 12.5625 342.5 Z " fill="#7DB356" transform="translate(291.4375,25.5)"/>
<path d="M0 0 C0.30325195 0.62092529 0.60650391 1.24185059 0.91894531 1.8815918 C4.1562748 8.22538312 9.29880638 13.69976232 14 19 C14.70125 19.86625 15.4025 20.7325 16.125 21.625 C24.86361688 28.84385742 37.08687532 30.98306718 48 33 C48.81339844 33.15243164 49.62679687 33.30486328 50.46484375 33.46191406 C78.95008379 38.48043238 109.88037825 37.94204297 138.4375 33.8125 C139.13131775 33.71453125 139.8251355 33.6165625 140.53997803 33.515625 C152.90381054 31.71082679 170.29136732 29.08051038 178.73828125 18.90625 C179.78495411 17.48737128 180.80043444 16.04459488 181.7734375 14.57421875 C182.17820313 14.05472656 182.58296875 13.53523438 183 13 C183.66 13 184.32 13 185 13 C185.268125 12.443125 185.53625 11.88625 185.8125 11.3125 C187.1013363 8.80266089 188.54865343 6.41891094 190 4 C190.68096422 2.67391178 191.35330586 1.34313399 192 0 C192 1.65 192 3.3 192 5 C192.64324219 4.97381592 193.28648437 4.94763184 193.94921875 4.9206543 C207.58117316 4.44057031 219.35388397 4.64122673 232 10 C233.45986328 10.61101562 233.45986328 10.61101562 234.94921875 11.234375 C243.81580498 15.31645058 249.49087245 21.04909797 255 29 C255.33 26.36 255.66 23.72 256 21 C275.10535109 20.31426457 290.52820338 22.58609162 305.125 36.03515625 C311.74447793 42.9718175 318.68418735 53.00427141 319.12890625 62.85546875 C319.08636719 63.56316406 319.04382813 64.27085937 319 65 C319.66 65 320.32 65 321 65 C321.020625 63.96875 321.04125 62.9375 321.0625 61.875 C322.56020151 50.16380628 330.48121965 39.437832 339.30859375 32.07421875 C347.89913468 25.65536657 357.98918483 20.83218829 368.86328125 20.90234375 C370.19262695 20.90717773 370.19262695 20.90717773 371.54882812 20.91210938 C372.9168457 20.92467773 372.9168457 20.92467773 374.3125 20.9375 C375.24384766 20.94201172 376.17519531 20.94652344 377.13476562 20.95117188 C379.42324373 20.96290766 381.71158808 20.97932637 384 21 C384.68573543 40.10535109 382.41390838 55.52820338 368.96484375 70.125 C357.08548234 81.46116993 344.1882611 85 328 85 C328.33 100.84 328.66 116.68 329 133 C332.96 127.555 332.96 127.555 337 122 C348.93676814 110.06323186 364.13447515 100.88820676 381.484375 100.8671875 C382.50144531 100.86589844 383.51851563 100.86460937 384.56640625 100.86328125 C386.14228516 100.86908203 386.14228516 100.86908203 387.75 100.875 C388.81605469 100.87113281 389.88210938 100.86726563 390.98046875 100.86328125 C392.49833984 100.86521484 392.49833984 100.86521484 394.046875 100.8671875 C394.97338867 100.86831543 395.89990234 100.86944336 396.85449219 100.87060547 C399 101 399 101 400 102 C401.62031393 122.45769092 398.5964643 140.32850638 385.75 156.8125 C374.97153279 169.19046993 360.56257055 178.84487034 344 181 C338.66365481 181.28601004 333.33803781 181.18290231 328 181 C328 183.64 328 186.28 328 189 C322.72 189 317.44 189 312 189 C312 186.36 312 183.72 312 181 C310.98421875 181.03480469 309.9684375 181.06960938 308.921875 181.10546875 C290.76568713 181.54641107 275.41027846 176.52255158 261.52734375 164.43359375 C245.28478846 148.79354437 239.80663824 130.91830798 239 109 C238.39414062 109.32613281 237.78828125 109.65226562 237.1640625 109.98828125 C236.32617188 110.42527344 235.48828125 110.86226563 234.625 111.3125 C233.40683594 111.95638672 233.40683594 111.95638672 232.1640625 112.61328125 C223.66765752 116.3370143 216.11114577 117.42749776 206.8671875 117.29296875 C205.74933868 117.28872391 204.63148987 117.28447906 203.47976685 117.28010559 C199.94458906 117.26344759 196.41000257 117.22581916 192.875 117.1875 C190.46354996 117.17243654 188.05209089 117.15875106 185.640625 117.14648438 C179.76019232 117.11358624 173.88019607 117.06189346 168 117 C167.01 119.97 166.02 122.94 165 126 C159.555 136.89 159.555 136.89 154 148 C171.82 148.33 189.64 148.66 208 149 C208 158.52216077 206.27856327 165.42838175 199.703125 172.46875 C192.91415472 178.57259484 185.79796401 181.24349666 176.66412354 181.26742554 C175.94734743 181.27195665 175.23057132 181.27648776 174.49207473 181.28115618 C172.10174641 181.29376792 169.71164687 181.29218192 167.32128906 181.29052734 C165.60265817 181.29651468 163.88402996 181.3033207 162.16540527 181.31088257 C157.50406635 181.32853049 152.84280088 181.33323749 148.18143177 181.33451414 C145.26630963 181.33593717 142.35120608 181.34020967 139.43608856 181.34550858 C129.25783607 181.364006 119.07963593 181.37217969 108.90136719 181.37060547 C99.42762077 181.36940467 89.9541024 181.39049566 80.48041368 181.4220928 C72.33581928 181.44828484 64.19129922 181.45897151 56.04666305 181.45769465 C51.18715758 181.45718581 46.32785477 181.46282569 41.46839142 181.48405075 C36.89479094 181.50348209 32.32158537 181.50352426 27.74797058 181.48901749 C26.0751004 181.48693424 24.40220519 181.49160128 22.72937775 181.5037384 C11.30495791 181.58121888 1.28888441 180.88242506 -7.46875 172.703125 C-14.02328658 165.41287513 -16 158.8214775 -16 149 C10.73 148.505 10.73 148.505 38 148 C34.04 140.08 30.08 132.16 26 124 C9.65870346 84.52621874 -1.62625851 43.05067659 0 0 Z M190 37 C189.78085938 38.22589844 189.56171875 39.45179688 189.3359375 40.71484375 C187.22993965 52.2400868 184.7446333 63.6239243 181.93115234 74.99780273 C181.68059082 76.01302002 181.4300293 77.0282373 181.171875 78.07421875 C180.9459668 78.97744873 180.72005859 79.88067871 180.48730469 80.8112793 C179.9275592 82.95164792 179.9275592 82.95164792 180 85 C184.47911082 85.05856225 188.9581217 85.09378482 193.4375 85.125 C194.69755859 85.14175781 195.95761719 85.15851563 197.25585938 85.17578125 C206.69421343 85.22506769 215.37959951 85.26566263 223 79 C228.36008585 73.60135238 231.27261914 68.99915968 231.375 61.1875 C231.24245521 53.99473582 229.25487054 49.68146766 224.6875 44.25 C216.54632631 37.43413366 208.95628601 36.82862069 198.5625 36.9375 C197.32209961 36.94426758 197.32209961 36.94426758 196.05664062 36.95117188 C194.03772854 36.96284189 192.01885426 36.98077282 190 37 Z M264 61 C263.91363281 61.93199219 263.82726562 62.86398437 263.73828125 63.82421875 C262.39052344 76.05295705 259.71999717 86.67043805 251.453125 96.1953125 C249.79157452 98.04416249 249.79157452 98.04416249 249 101 C249.94359375 101.03738281 250.8871875 101.07476562 251.859375 101.11328125 C270.83545894 102.0849482 287.09036351 107.48527432 301 121 C303.84522466 124.21387503 306.46496974 127.53824877 309 131 C309.99 132.32 310.98 133.64 312 135 C312 118.5 312 102 312 85 C306.39 84.34 300.78 83.68 295 83 C283.08540968 79.02846989 273.54911843 73.03607204 266.2421875 62.6875 C265.83226562 62.130625 265.42234375 61.57375 265 61 C264.67 61 264.34 61 264 61 Z " fill="#DDDDDB" transform="translate(40,307)"/>
<path d="M0 0 C5.82485779 3.51996782 10.54466582 8.98962934 12.5625 15.5 C13.41676431 23.81417703 13.14309305 30.42090165 8.5625 37.5 C8.2325 37.83 7.9025 38.16 7.5625 38.5 C9.28533203 39.02787109 9.28533203 39.02787109 11.04296875 39.56640625 C24.71755017 43.8665798 36.50827091 49.13666637 47.5625 58.5 C48.22636719 59.01949219 48.89023437 59.53898437 49.57421875 60.07421875 C55.61845795 64.97848356 60.30900262 71.01144728 64.5625 77.5 C64.5625 78.16 64.5625 78.82 64.5625 79.5 C65.5525 79.83 66.5425 80.16 67.5625 80.5 C67.645 81.44875 67.7275 82.3975 67.8125 83.375 C68.06 84.40625 68.3075 85.4375 68.5625 86.5 C69.87946898 87.19843748 71.21685287 87.85855163 72.5625 88.5 C74.24438092 89.91660864 75.88780731 91.37956086 77.5 92.875 C80.02777671 95.21133767 82.53590358 97.47892506 85.234375 99.6171875 C87.76927808 101.66722657 89.61153278 103.89871037 91.5625 106.5 C94.82252052 105.34321852 97.711545 103.86141899 100.6875 102.125 C115.77771385 93.58146184 134.59811682 91.40702281 151.40673828 95.93408203 C168.31381365 101.3320989 182.07284263 113.06024106 190.25390625 128.7421875 C195.78312886 140.28027613 196.88622379 149.94565399 196.8984375 162.57421875 C196.90487783 164.14590064 196.91160707 165.71758138 196.91860962 167.28926086 C196.93054431 170.57657648 196.93429454 173.86378732 196.93310547 177.15112305 C196.93290284 181.32899292 196.96016337 185.5061783 196.99464989 189.68388653 C197.01707572 192.92962118 197.02093821 196.1751954 197.01988602 199.42099953 C197.02222007 200.9593319 197.03091713 202.49767021 197.04655075 204.03592491 C197.21722134 222.56744692 191.7210852 238.72702394 178.89233398 252.38720703 C167.3891117 263.99775369 151.81589143 270.6607974 135.55712891 270.82910156 C134.1676001 270.82088379 134.1676001 270.82088379 132.75 270.8125 C131.78239746 270.80831055 130.81479492 270.80412109 129.81787109 270.79980469 C119.34135538 270.63443232 110.72655017 268.61072029 101.5625 263.5 C103.0831178 259.34364467 105.13816373 255.61407641 107.375 251.8125 C110.66598505 246.14619104 113.72925453 240.41167564 116.5625 234.5 C117.75875 234.83 118.955 235.16 120.1875 235.5 C130.30225977 237.69816827 140.43442128 237.75109905 149.5625 232.5 C156.0145387 228.33780248 160.2748175 222.48173313 162.20428467 215.01708984 C163.41365622 208.39633227 163.85651862 202.03599706 163.828125 195.3125 C163.83003845 194.28874268 163.8319519 193.26498535 163.83392334 192.21020508 C163.83527425 190.06233471 163.83165499 187.91445588 163.82324219 185.76660156 C163.81252721 182.50827419 163.82317521 179.25049805 163.8359375 175.9921875 C163.83461571 173.8906238 163.83205292 171.78906044 163.828125 169.6875 C163.83419769 168.2495105 163.83419769 168.2495105 163.84039307 166.7824707 C163.76610605 155.88672515 162.48196369 146.22587236 155.5625 137.5 C148.87484508 130.95051977 141.94181891 128.3729804 132.6875 128.0625 C125.56139871 128.21525673 119.27097401 129.64912987 113.5425539 134.05282307 C109.24821217 136.13824585 105.41141676 135.88647714 100.69804382 135.82279968 C99.69738492 135.8212794 98.69672602 135.81975913 97.66574413 135.81819278 C94.30908349 135.80941544 90.95296623 135.77903403 87.59643555 135.7487793 C85.19179315 135.73807233 82.78714451 135.72869509 80.38249207 135.72055054 C75.20359459 135.70001361 70.02483813 135.67021593 64.84604454 135.63199425 C57.35841123 135.57674837 49.87076504 135.53820475 42.38301072 135.503723 C30.23434581 135.44732442 18.08579746 135.37743882 5.93725586 135.29907227 C-5.86316773 135.2229802 -17.66360069 135.15323963 -29.46411133 135.09204102 C-30.19162463 135.08826585 -30.91913794 135.08449068 -31.6686971 135.08060112 C-35.31845678 135.0617012 -38.96821709 135.04292615 -42.61797774 135.02421319 C-72.89127505 134.86883518 -103.1644074 134.69134461 -133.4375 134.5 C-129.43980045 124.22692897 -122.5634538 115.79355096 -115.4375 107.5 C-114.715625 106.64277344 -113.99375 105.78554687 -113.25 104.90234375 C-107.62480214 98.40323122 -101.07391332 91.11034579 -93.16015625 87.4453125 C-92.30744141 86.97738281 -92.30744141 86.97738281 -91.4375 86.5 C-90.62165432 83.44091587 -90.62165432 83.44091587 -90.4375 80.5 C-89.4475 80.17 -88.4575 79.84 -87.4375 79.5 C-86.73911054 77.84637538 -86.07791182 76.17693021 -85.4375 74.5 C-73.46082147 57.01834591 -56.1655927 46.79931673 -36.4375 40.5 C-34.43704165 39.83470995 -32.43689696 39.16847308 -30.4375 38.5 C-31.076875 37.571875 -31.71625 36.64375 -32.375 35.6875 C-36.46980891 29.35915896 -35.99962997 22.83213008 -35.4375 15.5 C-33.77311428 8.84245713 -28.96538702 4.30878622 -23.4375 0.5 C-16.65568202 -2.91366677 -6.96443471 -3.08620048 0 0 Z " fill="#D0D24A" transform="translate(291.4375,25.5)"/>
<path d="M0 0 C19.10535109 -0.68573543 34.52820338 1.58609162 49.125 15.03515625 C55.74447793 21.9718175 62.68418735 32.00427141 63.12890625 41.85546875 C63.08636719 42.56316406 63.04382813 43.27085937 63 44 C63.66 44 64.32 44 65 44 C65.020625 42.96875 65.04125 41.9375 65.0625 40.875 C66.56020151 29.16380628 74.48121965 18.437832 83.30859375 11.07421875 C91.89913468 4.65536657 101.98918483 -0.16781171 112.86328125 -0.09765625 C114.19262695 -0.09282227 114.19262695 -0.09282227 115.54882812 -0.08789062 C116.9168457 -0.07532227 116.9168457 -0.07532227 118.3125 -0.0625 C119.24384766 -0.05798828 120.17519531 -0.05347656 121.13476562 -0.04882812 C123.42324373 -0.03709234 125.71158808 -0.02067363 128 0 C128.68573543 19.10535109 126.41390838 34.52820338 112.96484375 49.125 C101.08548234 60.46116993 88.1882611 64 72 64 C72.33 79.84 72.66 95.68 73 112 C75.64 108.37 78.28 104.74 81 101 C92.93676814 89.06323186 108.13447515 79.88820676 125.484375 79.8671875 C127.00998047 79.86525391 127.00998047 79.86525391 128.56640625 79.86328125 C130.14228516 79.86908203 130.14228516 79.86908203 131.75 79.875 C132.81605469 79.87113281 133.88210938 79.86726563 134.98046875 79.86328125 C136.49833984 79.86521484 136.49833984 79.86521484 138.046875 79.8671875 C138.97338867 79.86831543 139.89990234 79.86944336 140.85449219 79.87060547 C143 80 143 80 144 81 C145.62031393 101.45769092 142.5964643 119.32850638 129.75 135.8125 C118.97153279 148.19046993 104.56257055 157.84487034 88 160 C82.66365481 160.28601004 77.33803781 160.18290231 72 160 C72 162.64 72 165.28 72 168 C66.72 168 61.44 168 56 168 C56 165.36 56 162.72 56 160 C54.98421875 160.03480469 53.9684375 160.06960938 52.921875 160.10546875 C34.76568713 160.54641107 19.41027846 155.52255158 5.52734375 143.43359375 C-6.73035782 131.63058281 -15.66132771 116.47982754 -16.20703125 99.16796875 C-16.3976298 85.99673662 -16.3976298 85.99673662 -15 81 C2.0923966 76.78636744 19.20100919 81.23654231 34 90 C42.14164831 95.58947358 50.51564784 103.03129569 55 112 C55.33 96.16 55.66 80.32 56 64 C52.04 64 48.08 64 44 64 C30.95057451 61.63496553 18.55914217 54.3974685 10.375 43.875 C0.84637385 29.53361013 -0.32212374 16.58937277 0 0 Z " fill="#7DB357" transform="translate(296,328)"/>
<path d="M0 0 C1.765625 2.2890625 1.765625 2.2890625 3.25 4.625 C3.75015625 5.40101563 4.2503125 6.17703125 4.765625 6.9765625 C7.21732505 10.99548853 7.45701691 14.35638175 7 19 C5.06132733 26.76894562 0.55935236 31.44064764 -5 37 C-5.763125 38.010625 -6.52625 39.02125 -7.3125 40.0625 C-16.49876376 50.10329992 -33.67103618 51.89164864 -46.4375 53.75 C-47.1678949 53.85739502 -47.89828979 53.96479004 -48.65081787 54.07543945 C-77.32476991 58.15104937 -108.47992148 58.34468983 -137 53 C-137.81082031 52.85014648 -138.62164062 52.70029297 -139.45703125 52.54589844 C-150.63329542 50.39204393 -162.27774038 47.67857043 -171 40 C-172.3440093 38.00715862 -173.67541292 36.00580329 -175 34 C-176.36079435 32.48710089 -177.73702853 30.98800545 -179.125 29.5 C-183.9936751 24.07025082 -185.52288126 19.47544423 -185.3046875 12.2265625 C-184.31912088 5.02434492 -178.44523626 -0.66535987 -173 -5 C-129.0794643 -33.26885389 -41.00731278 -35.83097986 0 0 Z " fill="#CECECC" transform="translate(225,288)"/>
<path d="M0 0 C14.55290719 10.11711116 25.45387513 23.55296004 29.70188904 41.09301758 C30.68491549 47.26606495 30.45490419 53.58597858 30.4609375 59.82421875 C30.46737783 61.39590064 30.47410707 62.96758138 30.48110962 64.53926086 C30.49304431 67.82657648 30.49679454 71.11378732 30.49560547 74.40112305 C30.49540284 78.57899292 30.52266337 82.7561783 30.55714989 86.93388653 C30.57957572 90.17962118 30.58343821 93.4251954 30.58238602 96.67099953 C30.58472007 98.2093319 30.59341713 99.74767021 30.60905075 101.28592491 C30.77972134 119.81744692 25.2835852 135.97702394 12.45483398 149.63720703 C0.9516117 161.24775369 -14.62160857 167.9107974 -30.88037109 168.07910156 C-31.80672363 168.07362305 -32.73307617 168.06814453 -33.6875 168.0625 C-34.65510254 168.05831055 -35.62270508 168.05412109 -36.61962891 168.04980469 C-47.09614462 167.88443232 -55.71094983 165.86072029 -64.875 160.75 C-63.3543822 156.59364467 -61.29933627 152.86407641 -59.0625 149.0625 C-55.77151495 143.39619104 -52.70824547 137.66167564 -49.875 131.75 C-48.67875 132.08 -47.4825 132.41 -46.25 132.75 C-36.13524023 134.94816827 -26.00307872 135.00109905 -16.875 129.75 C-10.4229613 125.58780248 -6.1626825 119.73173313 -4.23321533 112.26708984 C-3.02384378 105.64633227 -2.58098138 99.28599706 -2.609375 92.5625 C-2.60746155 91.53874268 -2.6055481 90.51498535 -2.60357666 89.46020508 C-2.60222575 87.31233471 -2.60584501 85.16445588 -2.61425781 83.01660156 C-2.62497279 79.75827419 -2.61432479 76.50049805 -2.6015625 73.2421875 C-2.60288429 71.1406238 -2.60544708 69.03906044 -2.609375 66.9375 C-2.60532654 65.97884033 -2.60127808 65.02018066 -2.59710693 64.0324707 C-2.67139395 53.13672515 -3.95553631 43.47587236 -10.875 34.75 C-17.56265492 28.20051977 -24.49568109 25.6229804 -33.75 25.3125 C-42.42687588 25.49849948 -48.59579398 28.28524974 -55.875 32.75 C-56.5040625 31.71101563 -57.133125 30.67203125 -57.78125 29.6015625 C-62.70634533 21.54828775 -67.70465139 13.92001402 -73.875 6.75 C-71.6744888 0.98142826 -66.16394133 -0.75912233 -60.875 -3.25 C-41.06370685 -11.34301537 -18.64377977 -11.12403549 0 0 Z " fill="#C7C933" transform="translate(457.875,128.25)"/>
<path d="M0 0 C0.85133514 -0.00133942 1.70267029 -0.00267883 2.57980347 -0.00405884 C68.33072466 0.01822466 68.33072466 0.01822466 85.5625 17.25 C85.48979403 21.17612214 85.26581869 23.45593052 82.625 26.4375 C78.44650993 28.91048392 74.12998835 30.62668995 69.5625 32.25 C68.96848389 32.47905029 68.37446777 32.70810059 67.76245117 32.9440918 C60.50245287 35.59486511 52.99099454 36.80999422 45.375 37.9375 C44.2644223 38.10233887 44.2644223 38.10233887 43.13140869 38.27050781 C14.3813913 42.38969566 -16.8341457 42.61029579 -45.4375 37.25 C-46.24832031 37.10014648 -47.05914062 36.95029297 -47.89453125 36.79589844 C-58.94846478 34.6656191 -70.93685404 32.04102682 -79.4375 24.25 C-80.625 20.8125 -80.625 20.8125 -80.4375 17.25 C-68.74473908 3.2186869 -41.79425305 2.3012523 -24.9296875 0.6796875 C-16.62993434 0.03209 -8.32063494 0.00776038 0 0 Z " fill="#7EB458" transform="translate(133.4375,303.75)"/>
<path d="M0 0 C2.41282105 2.41282105 1.2417475 8.57977062 1.25 11.8125 C1.21612482 31.09926086 -4.42796747 46.90512834 -18 61 C-30.5694882 73.10323207 -45.86487531 80.28550439 -63.3828125 80.06640625 C-64.48604858 80.0592157 -64.48604858 80.0592157 -65.61157227 80.05187988 C-67.40775527 80.03947732 -69.20389031 80.02042551 -71 80 C-71.15294625 73.61400267 -71.25754588 67.22848266 -71.32958984 60.84106445 C-71.35964259 58.67128855 -71.40049737 56.50163292 -71.45263672 54.33227539 C-71.52595944 51.20168288 -71.55957216 48.07270493 -71.5859375 44.94140625 C-71.61690521 43.98166397 -71.64787292 43.02192169 -71.67977905 42.03309631 C-71.68335283 34.77590186 -69.51911907 30.59122978 -65 25 C-64.34515625 24.14148438 -63.6903125 23.28296875 -63.015625 22.3984375 C-46.46675919 3.43314438 -24.29634408 -1.92434742 0 0 Z " fill="#5F9548" transform="translate(439,408)"/>
<path d="M0 0 C1.3293457 0.00483398 1.3293457 0.00483398 2.68554688 0.00976562 C4.05356445 0.02233398 4.05356445 0.02233398 5.44921875 0.03515625 C6.38056641 0.03966797 7.31191406 0.04417969 8.27148438 0.04882812 C10.55996248 0.06056391 12.84830683 0.07698262 15.13671875 0.09765625 C15.82245418 19.20300734 13.55062713 34.62585963 0.1015625 49.22265625 C-9.51189875 58.39653578 -21.81511262 64.30697678 -35.17578125 64.16015625 C-36.24441406 64.15113281 -37.31304687 64.14210938 -38.4140625 64.1328125 C-39.62642578 64.11541016 -39.62642578 64.11541016 -40.86328125 64.09765625 C-41.25515625 63.14890625 -41.64703125 62.20015625 -42.05078125 61.22265625 C-44.11372503 57.66585663 -45.11841835 57.36024505 -48.86328125 56.09765625 C-49.84569409 40.95212498 -45.1185985 28.58492238 -35.61328125 16.91015625 C-26.62974096 7.15996811 -13.45990236 -0.08683808 0 0 Z " fill="#5F9548" transform="translate(408.86328125,327.90234375)"/>
<path d="M0 0 C6.33212824 -0.09236492 12.6618728 -0.1718419 18.99414062 -0.21972656 C21.14331021 -0.23970984 23.29242636 -0.26690594 25.44140625 -0.30175781 C41.61772524 -0.55733163 53.66912166 -0.04645904 67 10 C67.86625 10.5775 68.7325 11.155 69.625 11.75 C76.5870437 18.34562035 81.11085775 26.91983865 84 36 C84 37.32 84 38.64 84 40 C76.40130429 40.12679156 68.80288142 40.21434844 61.20336914 40.2746582 C58.6183045 40.29980001 56.03331093 40.33391815 53.44848633 40.37719727 C49.73240626 40.43785922 46.01726614 40.46621419 42.30078125 40.48828125 C41.14540359 40.51408768 39.99002594 40.5398941 38.79963684 40.56648254 C30.71250047 40.56930851 30.71250047 40.56930851 26.93261719 37.54907227 C26.29485352 36.70787842 25.65708984 35.86668457 25 35 C19.60968716 32.87000972 14.28356336 32.5970444 8.5625 32.375 C5.736875 32.25125 2.91125 32.1275 0 32 C0 21.44 0 10.88 0 0 Z " fill="#D0D24A" transform="translate(48,120)"/>
<path d="M0 0 C1.25060715 -0.00426498 2.50121429 -0.00852997 3.78971863 -0.01292419 C5.17822269 -0.01257467 6.56672672 -0.01211313 7.95523071 -0.0115509 C9.41552313 -0.01454263 10.87581476 -0.01794519 12.33610535 -0.02172852 C16.30514932 -0.03057164 20.27417175 -0.03290677 24.24322462 -0.0335443 C27.55584873 -0.03449339 30.86846782 -0.03817172 34.18109 -0.0417164 C41.99659392 -0.04986224 49.81208632 -0.05230052 57.62759399 -0.05158997 C65.69087356 -0.05098921 73.75408621 -0.06154028 81.81734884 -0.07733363 C88.73887712 -0.09040781 95.66038354 -0.09577391 102.58192408 -0.09513456 C106.71634625 -0.09487952 110.85070899 -0.0977337 114.98511887 -0.10831261 C118.87404749 -0.11799147 122.76285981 -0.11807424 126.65179253 -0.11079597 C128.07842237 -0.10974985 129.50505944 -0.11211469 130.93167686 -0.11815643 C132.88062472 -0.12587505 134.82961218 -0.12003276 136.77856445 -0.11352539 C138.41397218 -0.11434254 138.41397218 -0.11434254 140.08241844 -0.1151762 C143.12977804 0.14334242 145.29881529 0.74593765 148.01626587 2.13371277 C149.58562181 5.27242464 149.3682769 7.67227099 149.01626587 11.13371277 C146.54083179 14.25787291 145.01938021 15.91931352 141.0723877 16.76291847 C139.97733917 16.7648036 138.88229065 16.76668873 137.75405884 16.76863098 C136.49228821 16.7827301 135.23051758 16.79682922 133.93051147 16.81135559 C132.53982183 16.80163492 131.14913575 16.79139413 129.75845337 16.78068542 C128.28800372 16.78746359 126.81756256 16.79636785 125.34713745 16.80723572 C121.3594096 16.8300126 117.37232918 16.82119981 113.38459015 16.80534029 C109.20955167 16.79267276 105.03456826 16.80442376 100.85952759 16.81227112 C93.84852149 16.82136523 86.83777883 16.80938616 79.82681274 16.78556824 C71.72354204 16.75835723 63.62090035 16.76717158 55.51764488 16.79470026 C48.5578085 16.81739726 41.59816138 16.82058859 34.63829994 16.80750692 C30.48258785 16.79971558 26.32717132 16.79866187 22.17147827 16.81518936 C18.26420428 16.82964368 14.35774045 16.81959598 10.45055389 16.79071808 C9.01748754 16.78411223 7.58435288 16.78599654 6.15131378 16.7970314 C4.19372509 16.81071459 2.23598721 16.7905044 0.2784729 16.76863098 C-1.36409988 16.76580329 -1.36409988 16.76580329 -3.03985596 16.76291847 C-6.98499267 15.91971017 -8.50479578 14.25204046 -10.98373413 11.13371277 C-11.51976967 6.69227543 -11.48405068 4.88418759 -8.98373413 1.13371277 C-5.74672194 0.0547087 -3.4053833 0.005238 0 0 Z " fill="#C7C934" transform="translate(210.98373413085938,103.86628723144531)"/>
<path d="M0 0 C2.15255287 0.73049082 4.29695864 1.4850272 6.4375 2.25 C7.63246094 2.66765625 8.82742187 3.0853125 10.05859375 3.515625 C13 5 13 5 14.03125 6.8125 C13.98902395 9.7683232 13.14139254 12.00372807 12.0625 14.75 C11.68222656 15.73484375 11.30195313 16.7196875 10.91015625 17.734375 C10.60980469 18.48203125 10.30945313 19.2296875 10 20 C-0.55808656 19.03644647 -0.55808656 19.03644647 -5 18 C-4.56699236 11.18012971 -3.09212176 6.08356979 0 0 Z " fill="#87C15D" transform="translate(175,181)"/>
</svg>
