<?xml version="1.0" encoding="UTF-8"?>
<svg version="1.1" xmlns="http://www.w3.org/2000/svg" width="512" height="512">
<path d="M0 0 C4.12593192 2.87855716 7.06537651 6.00862953 8.6875 10.875 C8.77661173 12.91466481 8.80510045 14.95717286 8.80102539 16.9987793 C8.80094986 18.25986008 8.80087433 19.52094086 8.80079651 20.82023621 C8.79568989 22.19656412 8.79047389 23.57289163 8.78515625 24.94921875 C8.78329086 26.35740611 8.78186753 27.76559411 8.78086853 29.17378235 C8.77705288 32.8776733 8.76723072 36.58152495 8.75616455 40.28540039 C8.74592997 44.06591256 8.74136652 47.84643109 8.73632812 51.62695312 C8.7256076 59.04298665 8.7085426 66.45898782 8.6875 73.875 C9.29966307 73.87223462 9.91182613 73.86946924 10.5425396 73.86662006 C25.52012339 73.80002178 40.49766093 73.75055629 55.47535515 73.71956348 C62.7188134 73.70417266 69.96217211 73.68323451 77.20556641 73.64868164 C83.52767389 73.61853823 89.8497092 73.59936864 96.17188656 73.59273452 C99.51154476 73.58886384 102.85083486 73.57829738 106.19045639 73.55780983 C124.74956597 73.44858158 141.88127674 74.60550199 159.8125 79.625 C160.73208496 79.87958984 161.65166992 80.13417969 162.59912109 80.39648438 C171.00990623 82.81335984 178.82617408 86.06134685 186.6875 89.875 C187.76386719 90.3803125 188.84023438 90.885625 189.94921875 91.40625 C230.34417675 110.85375859 261.18027093 147.80452709 276.08984375 189.734375 C281.93090184 206.99896077 284.88026737 224.98681222 284.92773438 243.17260742 C284.93748965 245.43510027 284.96859645 247.69670201 285 249.95898438 C285.00652718 251.41145301 285.01177877 252.86392805 285.015625 254.31640625 C285.0249707 255.62295166 285.03431641 256.92949707 285.04394531 258.27563477 C284.51007778 263.66659981 282.52885717 267.64912872 278.375 271.125 C277.82199219 271.60453125 277.26898438 272.0840625 276.69921875 272.578125 C270.43681628 276.61524659 263.78255292 276.15925994 256.60546875 276.13378906 C255.391474 276.1372937 254.17747925 276.14079834 252.92669678 276.14440918 C249.60327891 276.15169427 246.28011078 276.14999521 242.956707 276.14365101 C239.45428908 276.13855983 235.95188127 276.14329277 232.44946289 276.14642334 C226.55157583 276.15006163 220.65373883 276.14527553 214.75585938 276.13574219 C207.99535128 276.12493866 201.23496462 276.12832415 194.47445965 276.139395 C188.63284381 276.1485693 182.79126388 276.14970201 176.94964314 276.14451766 C173.47815796 276.14144245 170.00672907 276.14086099 166.5352478 276.14759064 C110.91561876 276.22144043 63.16047511 263.82301719 22.6875 223.875 C-14.41240872 186.78735571 -26.42444265 139.18739213 -26.515625 88.16015625 C-26.51986607 86.55093701 -26.51986607 86.55093701 -26.52419281 84.9092083 C-26.53908519 79.24830766 -26.54838139 73.58743192 -26.55273438 67.92651367 C-26.55825063 62.0903156 -26.58237289 56.25434711 -26.61070633 50.41822147 C-26.62931997 45.91350118 -26.63453731 41.40883685 -26.63607025 36.90408134 C-26.63909264 34.75151735 -26.64710715 32.59895425 -26.66025543 30.4464283 C-26.67731303 27.44335276 -26.67543799 24.44084848 -26.66894531 21.43774414 C-26.6781601 20.55401627 -26.68737488 19.67028839 -26.6968689 18.75978088 C-26.65688402 12.85474552 -25.74451776 8.51152834 -21.59375 4.01171875 C-21.0059375 3.53347656 -20.418125 3.05523437 -19.8125 2.5625 C-19.2246875 2.07136719 -18.636875 1.58023438 -18.03125 1.07421875 C-12.89377123 -2.5103403 -5.66963566 -1.92553664 0 0 Z " fill="#45AF82" transform="translate(111.3125,194.125)"/>
<path d="M0 0 C3.09605768 2.28268511 3.91724669 3.46111901 4.50793457 7.30761719 C4.51111694 8.62407227 4.51429932 9.94052734 4.51757812 11.296875 C4.5245874 12.02611176 4.53159668 12.75534851 4.53881836 13.50668335 C4.55643534 15.92150909 4.54474394 18.33516185 4.53125 20.75 C4.5339485 22.445152 4.5378339 24.14030248 4.54284668 25.83544922 C4.54875055 29.39988853 4.54016758 32.96392756 4.52148438 36.52832031 C4.49896848 41.03813333 4.51200624 45.54698852 4.53525257 50.05676651 C4.71011963 89.9905081 -2.01751703 123.10770768 -30.4375 152.8125 C-51.35983213 172.84452013 -79.08716023 185.02194114 -108.06860352 185.20874023 C-109.5311557 185.22341591 -109.5311557 185.22341591 -111.02325439 185.23838806 C-114.22512479 185.26811826 -117.4269545 185.28965561 -120.62890625 185.30859375 C-122.27622899 185.31845149 -122.27622899 185.31845149 -123.95683098 185.32850838 C-129.76149077 185.36099131 -135.56613295 185.38547823 -141.37084961 185.4050293 C-146.16734347 185.42288711 -150.96325442 185.45779562 -155.75952148 185.50756836 C-161.56542462 185.56773044 -167.37078481 185.59849723 -173.17698479 185.60820198 C-175.38459548 185.61675644 -177.59219162 185.63557416 -179.79962349 185.6649456 C-182.88732562 185.70384485 -185.97290216 185.70489745 -189.06079102 185.69702148 C-190.42082497 185.7270224 -190.42082497 185.7270224 -191.80833435 185.75762939 C-197.52294446 185.69229959 -200.54210606 184.51084139 -204.72051907 180.58096409 C-210.06030478 173.98296858 -207.3575763 158.88123876 -206.7265625 150.875 C-204.36032866 130.15929244 -196.35194374 110.74428522 -184 94 C-183.06220703 92.72769531 -183.06220703 92.72769531 -182.10546875 91.4296875 C-164.06180958 67.98395522 -138.18528941 51.53158901 -108.84849548 46.4546051 C-104.45378029 45.93547757 -100.1795362 45.86744767 -95.76000977 45.88647461 C-94.86165909 45.88632858 -93.96330841 45.88618256 -93.03773499 45.8860321 C-90.08893358 45.8867249 -87.14019653 45.89448753 -84.19140625 45.90234375 C-82.13874852 45.90421018 -80.08609034 45.90563302 -78.03343201 45.90663147 C-72.64615639 45.91043893 -67.25890798 45.92025403 -61.87164307 45.93133545 C-56.3682085 45.94158771 -50.8647695 45.94613725 -45.36132812 45.95117188 C-34.57420683 45.96187795 -23.78710568 45.97893302 -13 46 C-12.98598145 44.12296387 -12.98598145 44.12296387 -12.97167969 42.20800781 C-12.93179518 37.5634405 -12.86604059 32.91953665 -12.79248047 28.27539062 C-12.76426193 26.26571173 -12.74305179 24.25592166 -12.72900391 22.24609375 C-12.70758665 19.35619151 -12.66094297 16.4676271 -12.609375 13.578125 C-12.60814636 12.68007141 -12.60691772 11.78201782 -12.60565186 10.85675049 C-12.45907841 4.60858939 -12.45907841 4.60858939 -10.08691406 1.46386719 C-6.29448104 -1.19633735 -4.52480929 -1.17645042 0 0 Z " fill="#52C48F" transform="translate(438,36)"/>
<path d="M0 0 C2.1484375 2.26171875 2.1484375 2.26171875 2.77734375 4.515625 C2.59864187 10.7281432 2.59864187 10.7281432 0.4609375 13.26171875 C-3.50783498 14.97794469 -7.56041252 15.38890835 -11.84375 15.69140625 C-48.46914422 18.45275793 -84.25398953 30.26699167 -110.63671875 57.09375 C-112.8515625 59.26171875 -112.8515625 59.26171875 -114.8515625 59.26171875 C-115.1196875 59.86242187 -115.3878125 60.463125 -115.6640625 61.08203125 C-116.8706625 63.29677731 -117.98248429 64.47431746 -119.8515625 66.13671875 C-142.71111304 88.47457831 -156.09956393 124.1726075 -158.3359375 155.56640625 C-158.41368408 156.65308594 -158.49143066 157.73976562 -158.5715332 158.859375 C-158.71457137 161.0144191 -158.83866325 163.17081931 -158.94213867 165.328125 C-159.03458862 166.80732422 -159.03458862 166.80732422 -159.12890625 168.31640625 C-159.19452759 169.63874268 -159.19452759 169.63874268 -159.26147461 170.98779297 C-159.8515625 173.26171875 -159.8515625 173.26171875 -161.77172852 175.04589844 C-164.02433832 176.36271929 -165.266966 176.66700699 -167.8515625 176.63671875 C-168.5115625 176.64445313 -169.1715625 176.6521875 -169.8515625 176.66015625 C-172.7493809 176.08285649 -173.8855272 175.52524623 -175.8515625 173.26171875 C-176.48632731 170.19914216 -176.41666866 167.19135384 -176.3515625 164.07421875 C-176.34020264 163.15092773 -176.32884277 162.22763672 -176.31713867 161.27636719 C-175.69090253 138.11144639 -169.71167784 116.0905825 -159.8515625 95.26171875 C-159.34496094 94.17890625 -158.83835937 93.09609375 -158.31640625 91.98046875 C-138.32087712 50.6030538 -100.99252728 21.18605329 -58.25 5.98046875 C-44.76481074 1.64945906 -13.37016595 -8.15030664 0 0 Z " fill="#CFC4DF" transform="translate(214.8515625,83.73828125)"/>
<path d="M0 0 C2.16210938 1.41015625 2.16210938 1.41015625 4 4 C4.60694363 7.41311394 4.5601309 10.79090143 4.53125 14.25 C4.5350769 15.25909424 4.53890381 16.26818848 4.54284668 17.30786133 C4.5455686 19.44629919 4.53818792 21.58477018 4.52148438 23.72314453 C4.5002574 26.96074022 4.5211843 30.19607122 4.546875 33.43359375 C4.5678974 47.82210136 4.33374882 59.90906521 -6.30078125 70.71484375 C-10.72886934 74.46365928 -15.60924871 77.15342751 -20.73095703 79.81298828 C-23.32425741 81.16962982 -25.89476619 82.56471038 -28.46484375 83.96484375 C-32.56572417 86.19871154 -36.6710442 88.42395991 -40.78125 90.640625 C-47.43666744 94.23224122 -54.07489379 97.85488793 -60.71118164 101.48168945 C-65.4349889 104.06134526 -70.16394094 106.6308326 -74.90234375 109.18359375 C-84.82258936 114.53021963 -94.70239766 119.93134905 -104.5 125.5 C-107.34186721 127.10727749 -110.18459712 128.71301434 -113.02783203 130.31787109 C-115.09120765 131.48565966 -117.15189722 132.65820196 -119.21044922 133.83447266 C-122.44369767 135.67716961 -125.68906928 137.49673099 -128.9375 139.3125 C-129.92621094 139.88226563 -130.91492188 140.45203125 -131.93359375 141.0390625 C-137.60567939 144.17896705 -141.49390435 145.85085355 -148 145 C-150.5 143.4375 -150.5 143.4375 -152 141 C-152.5 137.5 -152.5 137.5 -152 134 C-149.30968284 130.78867751 -146.41701745 128.93464874 -142.73046875 127.00390625 C-141.68906738 126.45226807 -140.64766602 125.90062988 -139.57470703 125.33227539 C-138.45692871 124.74824951 -137.33915039 124.16422363 -136.1875 123.5625 C-133.81269738 122.30410113 -131.43881624 121.04413664 -129.06640625 119.78125 C-128.46741516 119.46305801 -127.86842407 119.14486603 -127.25128174 118.81703186 C-121.65042879 115.83333638 -116.13285136 112.71354426 -110.625 109.5625 C-101.56806122 104.39467542 -92.40672045 99.43961123 -83.20129395 94.54327393 C-74.26300815 89.78585809 -65.418594 84.88538942 -56.6237793 79.86791992 C-49.0769569 75.57583475 -41.45974856 71.42187319 -33.8125 67.3125 C-32.69472168 66.71171631 -31.57694336 66.11093262 -30.42529297 65.49194336 C-22.35125114 61.16509145 -22.35125114 61.16509145 -19.7409668 59.93823242 C-17.40117412 58.67728399 -16.97720965 57.44302412 -16 55 C-15.649375 54.21625 -15.29875 53.4325 -14.9375 52.625 C-12.84843408 46.77561542 -12.85492224 40.93491605 -12.82421875 34.8046875 C-12.80103998 33.01951921 -12.77692347 31.23436288 -12.75195312 29.44921875 C-12.71674067 26.6533988 -12.68741898 23.85802735 -12.67407227 21.06201172 C-12.65862116 18.35069863 -12.61846064 15.64066348 -12.57421875 12.9296875 C-12.57612717 12.0942038 -12.57803558 11.25872009 -12.58000183 10.3979187 C-12.4575517 4.5975589 -12.4575517 4.5975589 -10.08911133 1.50439453 C-6.3134643 -1.21449492 -4.53653758 -1.17949977 0 0 Z " fill="#32AD6E" transform="translate(438,36)"/>
<path d="M0 0 C0.83772949 0.03577148 1.67545898 0.07154297 2.53857422 0.10839844 C14.79078411 0.70016743 26.68619028 2.25975311 38.6875 4.8125 C39.83959961 5.04855957 40.99169922 5.28461914 42.17871094 5.52783203 C52.39250741 7.84415882 52.39250741 7.84415882 56 13 C56.6198676 16.92582814 56.58925458 19.00082919 54.5625 22.4375 C49.56125161 25.4870417 43.54338015 24.25173746 38.0390625 22.9765625 C36.23369513 22.52877387 34.42903906 22.07811043 32.625 21.625 C5.74908668 15.36577312 -20.22938584 16.30757872 -47 22 C-47.70253906 22.14808105 -48.40507812 22.29616211 -49.12890625 22.44873047 C-79.21605701 29.02079749 -106.54132435 46.33342048 -128.7734375 67.1171875 C-131.7980531 69.6748449 -134.02247779 70.85441159 -137.9375 71.4375 C-141 71 -141 71 -143.875 68.9375 C-146.55805058 65.22857713 -146.52127944 63.50327517 -146 59 C-144.0859375 56.296875 -144.0859375 56.296875 -141.375 53.75 C-140.88354492 53.28601807 -140.39208984 52.82203613 -139.88574219 52.34399414 C-102.3241039 17.56491639 -51.37678317 -2.40154693 0 0 Z " fill="#CFC5DB" transform="translate(215,35)"/>
<path d="M0 0 C3.40114127 2.66089288 4.84698179 4.11712519 5.59375 8.42578125 C4.94152434 35.46597005 -3.64345785 60.07538821 -21 81 C-21.71929687 81.87140625 -22.43859375 82.7428125 -23.1796875 83.640625 C-40.20042284 103.38710087 -65.85669008 117.6126177 -92 120 C-95.3545221 120.18085005 -98.70355922 120.26831172 -102.0625 120.3125 C-102.89668457 120.33022461 -103.73086914 120.34794922 -104.59033203 120.36621094 C-105.37649902 120.36524414 -106.16266602 120.36427734 -106.97265625 120.36328125 C-107.67656494 120.36626221 -108.38047363 120.36924316 -109.10571289 120.37231445 C-111.5639069 119.88916638 -112.4437349 118.92112967 -114 117 C-114.6875 115.1328125 -114.6875 115.1328125 -115 113.125 C-115.12375 112.46757812 -115.2475 111.81015625 -115.375 111.1328125 C-114.73535304 107.4948204 -112.8865009 106.18427917 -110 104 C-107.08084607 103.21665075 -104.19813337 103.08118038 -101.1875 102.9375 C-75.81685576 100.97727414 -53.29425457 90.88244455 -36 72 C-21.25316229 54.75525989 -14.04326379 34.98519216 -12.30151367 12.58032227 C-11.55662561 4.62609105 -11.55662561 4.62609105 -8.58984375 1.2890625 C-5.33613871 -0.3304287 -3.58667979 -0.67250246 0 0 Z " fill="#C4BCD3" transform="translate(468,147)"/>
<path d="M0 0 C0.45403198 0.91652344 0.45403198 0.91652344 0.91723633 1.8515625 C1.6859216 3.37680047 2.49245518 4.88322345 3.32421875 6.375 C6.58465969 12.65298369 7.29600941 16.83443143 6.33984375 23.80078125 C5.58824336 30.87619181 5.61476838 38.64269495 9 45 C9.37890625 47.11328125 9.37890625 47.11328125 9.5625 49.3125 C9.63597656 50.09496094 9.70945312 50.87742187 9.78515625 51.68359375 C9.89150391 52.83021484 9.89150391 52.83021484 10 54 C10.45359582 57.51536763 10.88014841 60.64044523 12 64 C12.79792243 67.09803684 13.56960213 70.20137326 14.3347168 73.30761719 C15.25564696 77.03794614 16.19563083 80.76048801 17.1875 84.47265625 C17.37594482 85.18977783 17.56438965 85.90689941 17.75854492 86.64575195 C18.12100375 88.0225843 18.4906815 89.39754147 18.8684082 90.77026367 C19.75063457 94.16032837 20.30125907 96.67549295 19 100 C15.16673237 95.27426195 13.29207623 89.85898384 11.0625 84.25 C10.61519531 83.12489014 10.16789062 81.99978027 9.70703125 80.84057617 C6.39963495 72.35625349 3.56760622 63.98491206 2 55 C1.82484863 54.07026367 1.64969727 53.14052734 1.46923828 52.18261719 C-0.35468167 41.32892995 -0.22636129 30.5987943 -0.125 19.625 C-0.11494313 17.71354639 -0.1058221 15.80208762 -0.09765625 13.890625 C-0.0758733 9.26028651 -0.04149499 4.63020206 0 0 Z " fill="#6DBE95" transform="translate(86,277)"/>
<path d="M0 0 C-2.65204777 2.93619574 -4.2166956 4.10981073 -8 5 C-11.25198583 6.97946964 -14.14164181 9.11851661 -17.0625 11.5625 C-20 14 -20 14 -22.33203125 15.30078125 C-25.54447147 17.34677173 -28.02320044 19.88024442 -30.625 22.625 C-35.596875 27.865625 -35.596875 27.865625 -39 29 C-40.53039131 30.68889357 -40.53039131 30.68889357 -41.9375 32.75 C-42.46085937 33.47316406 -42.98421875 34.19632813 -43.5234375 34.94140625 C-44.01070313 35.62074219 -44.49796875 36.30007812 -45 37 C-47.7813108 40.62413226 -50.77167119 43.77167119 -54 47 C-56.69455675 49.97555336 -59.35148081 52.98344837 -62 56 C-62.66 55.67 -63.32 55.34 -64 55 C-62.49767891 51.55488672 -60.47594341 49.12997125 -57.9375 46.375 C-55.14219542 43.41210833 -55.14219542 43.41210833 -53 40 C-53.66 39.67 -54.32 39.34 -55 39 C-54.2886792 38.29915283 -53.5773584 37.59830566 -52.84448242 36.8762207 C-50.19482014 34.26288816 -47.55188841 31.64283606 -44.91088867 29.02075195 C-43.7691464 27.88903773 -42.62561166 26.75912878 -41.48022461 25.63110352 C-39.82966767 24.00493551 -38.18576707 22.37228241 -36.54296875 20.73828125 C-36.0334819 20.23911697 -35.52399506 19.7399527 -34.99906921 19.22566223 C-32.79322683 17.02051366 -30.9792836 14.96505106 -29.38452148 12.2746582 C-27.86636213 9.78044366 -26.92274427 9.05445348 -24.3046875 7.8671875 C-23.59256104 7.53710693 -22.88043457 7.20702637 -22.14672852 6.86694336 C-21.39705811 6.53960205 -20.6473877 6.21226074 -19.875 5.875 C-19.11179443 5.53025635 -18.34858887 5.1855127 -17.56225586 4.83032227 C-3.16834462 -1.58417231 -3.16834462 -1.58417231 0 0 Z " fill="#5EC78A" transform="translate(320,86)"/>
<path d="M0 0 C2.22845452 4.30834541 3.12095384 7.64793355 3.17578125 12.50390625 C3.46783912 27.95299017 4.79228855 42.80762877 7.47607422 58.0234375 C8.35370475 63.00949127 9.17255051 68.00541525 10 73 C8.515 73.495 8.515 73.495 7 74 C6.19769334 71.12761966 5.40819974 68.25259904 4.625 65.375 C4.40328125 64.58609375 4.1815625 63.7971875 3.953125 62.984375 C0.04462297 48.49992629 -0.26250299 34.51164421 -0.125 19.625 C-0.11494313 17.71354639 -0.1058221 15.80208762 -0.09765625 13.890625 C-0.0758733 9.26028651 -0.04149499 4.63020206 0 0 Z " fill="#7FC69E" transform="translate(86,277)"/>
<path d="M0 0 C-1.65258306 4.95774917 -5.73214526 7.32878279 -10.1875 9.6875 C-17.67073463 13.76319029 -23.75077597 20.41146778 -29 27 C-30.19736982 28.09820875 -31.42442952 29.16553625 -32.6875 30.1875 C-35.26145814 32.25092744 -35.26145814 32.25092744 -37 35 C-37.99 34.67 -38.98 34.34 -40 34 C-39.2886792 33.29915283 -38.5773584 32.59830566 -37.84448242 31.8762207 C-35.19482014 29.26288816 -32.55188841 26.64283606 -29.91088867 24.02075195 C-28.7691464 22.88903773 -27.62561166 21.75912878 -26.48022461 20.63110352 C-24.82966767 19.00493551 -23.18576707 17.37228241 -21.54296875 15.73828125 C-21.0334819 15.23911697 -20.52399506 14.7399527 -19.99906921 14.22566223 C-17.12434296 11.35184018 -15.03475096 8.50100785 -13 5 C-10.625 3.41796875 -10.625 3.41796875 -8 2.1875 C-6.700625 1.55908203 -6.700625 1.55908203 -5.375 0.91796875 C-3 0 -3 0 0 0 Z " fill="#6CCB91" transform="translate(305,91)"/>
<path d="M0 0 C1.72990025 0.93614567 3.45888696 1.87397958 5.1875 2.8125 C6.15042969 3.33457031 7.11335937 3.85664063 8.10546875 4.39453125 C9.06066406 4.92433594 10.01585937 5.45414062 11 6 C11.94488281 6.45761719 12.88976562 6.91523438 13.86328125 7.38671875 C14.56839844 7.91910156 15.27351563 8.45148438 16 9 C16.3125 11.6875 16.3125 11.6875 16 14 C14.39253944 13.57476184 12.78910164 13.13429874 11.1875 12.6875 C10.29417969 12.44386719 9.40085938 12.20023437 8.48046875 11.94921875 C5.92513913 10.97135245 4.66290803 10.14907383 3 8 C3 7.34 3 6.68 3 6 C2.34 6 1.68 6 1 6 C-0.0625 4.125 -0.0625 4.125 -1 2 C-0.67 1.34 -0.34 0.68 0 0 Z " fill="#30AB6D" transform="translate(125,277)"/>
<path d="M0 0 C2.31357188 3.47035782 2.48844098 5.90752784 3 10 C3.33 10.99 3.66 11.98 4 13 C4.7014711 15.68474682 5.3889763 18.37078514 6.0625 21.0625 C6.24876953 21.79533203 6.43503906 22.52816406 6.62695312 23.28320312 C8 28.7603022 8 28.7603022 8 31 C7.34 31 6.68 31 6 31 C5.00254028 27.28131522 4.00847759 23.56183794 3.0234375 19.83984375 C2.45950751 17.72403008 1.88887168 15.60982967 1.2890625 13.50390625 C-0.00285748 8.85112198 -0.1709015 4.78524195 0 0 Z " fill="#63B88F" transform="translate(94,328)"/>
<path d="M0 0 C2.24328873 2.39939387 2.98398794 3.57396492 3.109375 6.91015625 C2.99078125 7.95042969 2.8721875 8.99070312 2.75 10.0625 C2.64171875 11.10535156 2.5334375 12.14820313 2.421875 13.22265625 C2 16 2 16 1 19 C-0.65497356 15.69005287 -0.10084335 12.00877 -0.0625 8.375 C-0.05798828 7.57320313 -0.05347656 6.77140625 -0.04882812 5.9453125 C-0.03703168 3.96350994 -0.01909605 1.98174567 0 0 Z " fill="#60B68E" transform="translate(90,288)"/>
</svg>
